<?xml version="1.0" encoding="utf-8"?>
<!-- Generator: Adobe Illustrator 27.9.0, SVG Export Plug-In . SVG Version: 6.00 Build 0)  -->
<svg version="1.1" id="Camada_1" xmlns="http://www.w3.org/2000/svg" xmlns:xlink="http://www.w3.org/1999/xlink" x="0px" y="0px"
	 viewBox="0 0 130 130" style="enable-background:new 0 0 130 130;" xml:space="preserve">
<style type="text/css">
	.st0{fill:#00C866;}
	.st1{fill:#73CF9A;}
</style>
<g id="_x35_cNg0Z.tif">
	<g>
		<path class="st0" d="M18.4,114c0-32.6,0-65.1,0-97.7c1.2-6.1,4.7-9.9,10.8-11.3C47.1,5,65,5,82.9,5c6.7,1.4,11.1,6.9,10.9,14.2
			c-0.2,5.6,0,11.3,0,16.9c0,1.6,0,1.7,1.6,1.7c5.9,0,11.8,0,17.7,0c1,0,1.9,0.2,2.5,1.2c0.5,0.7,0.4,1.6,0.4,2.4
			c0,11.8,0,23.6,0,35.3c0,2.8-0.7,3.6-3.5,3.6c-5.7,0-11.5,0-17.2,0c-1.5,0-1.5,0.1-1.5,1.5c0,0.4,0,0.9,0,1.3c0,9.7,0,19.3,0,29
			c0,7.7-5.7,13.3-13.3,13.3c-16.4,0-32.9,0-49.3,0c-3.5,0-6.4-1.3-8.9-3.7C20.1,119.6,18.9,116.9,18.4,114z M88.6,82.5
			c-0.4,0.3-0.6,0.5-0.8,0.7c-2.9,2.6-5.8,5.2-8.7,7.8c-0.5,0.4-1,0.9-1.7,1c-1.6,0.2-2.8-0.8-2.9-2.7c-0.1-2.5,0-4.9,0-7.4
			c0-1.5-0.1-1.6-1.6-1.6c-1.8,0-3.7,0-5.5,0c-2.4,0-3.2-0.8-3.2-3.3c0-12,0-24,0-35.9c0-2.4,0.9-3.3,3.2-3.3c6.6,0,13.2,0,19.8,0
			c1.5,0,1.6,0,1.6-1.6c0-6,0-12.1,0-18.1c0-0.6,0-1.3-0.1-1.9c-0.8-3.9-4.1-6.4-8.4-6.4c-8,0-16,0-23.9,0c-8.1,0-16.3,0-24.4,0
			c-5,0-8.5,3.4-8.5,8.1c0,27.4,0,54.9,0,82.3c0,1.1,0.4,1.5,1.5,1.5c20.8,0,41.6,0,62.4,0c1.1,0,1.5-0.4,1.5-1.5c0-5.5,0-11,0-16.6
			C88.7,83.3,88.7,83,88.6,82.5z M90.1,42.7c-6.5,0-13.1,0-19.6,0c-1,0-1.4,0.3-1.4,1.4c0,10,0,20,0,29.9c0,1.1,0.3,1.5,1.4,1.4
			c2-0.1,4,0,6,0c2.1,0,3,0.9,3,3c0,1.4,0,2.8,0,4.2c0,0.3-0.2,0.8,0.2,0.9c0.3,0.1,0.5-0.3,0.8-0.5c2.4-2.2,4.9-4.4,7.3-6.6
			c0.9-0.8,1.8-1.1,3-1.1c6.2,0,12.4,0,18.7,0c1.6,0,1.6,0,1.6-1.6c0-9.9,0-19.7,0-29.6c0-1.5,0-1.6-1.6-1.6
			C103,42.7,96.5,42.7,90.1,42.7z M56.2,106.5c-2.2,0-4.4,0-6.6,0c-8.3,0-16.5,0-24.8,0c-1.1,0-1.5,0.3-1.5,1.5c0.1,1.6,0,3.1,0,4.7
			c0,1.4,0.4,2.6,1.1,3.8c1.7,2.8,4.3,4,7.5,4c7.5,0,14.9,0,22.4,0c8.6,0,17.2,0,25.8,0c5.9,0,8.8-4.6,8.5-8.6c-0.1-1.2,0-2.4,0-3.6
			c0-1.7,0-1.7-1.7-1.7C76.7,106.5,66.4,106.5,56.2,106.5z"/>
		<path class="st0" d="M60.8,16.2c5.7,0,11.5,0,17.2,0c2.1,0,3.3,1.7,2.5,3.5c-0.4,0.9-1.2,1.4-2.2,1.4c-1.6,0-3.3,0-4.9,0
			c-9.7,0-19.3,0-29,0c-0.3,0-0.5,0-0.8,0c-1.8,0-3-1-3-2.4c0-1.5,1.1-2.4,3-2.4C49.4,16.2,55.1,16.2,60.8,16.2z"/>
		<path class="st0" d="M44.4,40.1c4.2,0,8.4,0,12.7,0c2,0,3.2,1.9,2.3,3.5c-0.5,0.9-1.2,1.3-2.2,1.3c-8.6,0-17.2,0-25.8,0
			c-1.4,0-2.5-1.1-2.5-2.4c0-1.4,1.1-2.4,2.6-2.4C35.8,40.1,40.1,40.1,44.4,40.1z"/>
		<path class="st0" d="M44.3,49.5c4.3,0,8.5,0,12.8,0c2,0,3.2,1.9,2.3,3.5c-0.5,0.9-1.2,1.3-2.2,1.3c-8.6,0-17.2,0-25.8,0
			c-1.4,0-2.5-1.1-2.5-2.4c0-1.4,1.1-2.4,2.6-2.4C35.8,49.5,40,49.5,44.3,49.5z"/>
		<path class="st0" d="M44.2,63.8c-4.2,0-8.4,0-12.7,0c-1.2,0-2-0.5-2.4-1.6c-0.4-1-0.1-1.8,0.6-2.6c0.5-0.5,1.1-0.7,1.8-0.7
			c8.5,0,17,0,25.6,0c1.5,0,2.6,1.1,2.6,2.4c0,1.4-1.1,2.4-2.6,2.4C52.8,63.8,48.5,63.8,44.2,63.8z"/>
		<path class="st0" d="M44.2,73.2c-4.2,0-8.4,0-12.7,0c-1.2,0-2-0.5-2.4-1.6c-0.4-1-0.1-1.8,0.6-2.6c0.5-0.5,1.1-0.7,1.8-0.7
			c8.5,0,17,0,25.6,0c1.5,0,2.6,1.1,2.6,2.4c0,1.4-1.1,2.4-2.6,2.4C52.8,73.2,48.5,73.2,44.2,73.2z"/>
		<path class="st0" d="M44.3,77.7c4.3,0,8.5,0,12.8,0c2,0,3.2,1.9,2.3,3.5c-0.5,0.9-1.2,1.3-2.2,1.3c-8.6,0-17.2,0-25.8,0
			c-1.4,0-2.5-1.1-2.5-2.4c0-1.4,1.1-2.4,2.6-2.4C35.8,77.7,40,77.7,44.3,77.7z"/>
		<path class="st0" d="M42.1,30.3c3.4,0,6.7,0,10.1,0c1.7,0,2.8,1,2.8,2.4s-1.1,2.4-2.9,2.4c-6.8,0-13.6,0-20.4,0
			c-1.7,0-2.8-1-2.8-2.4c0-1.4,1.1-2.4,2.9-2.4C35.2,30.3,38.6,30.3,42.1,30.3z"/>
		<path class="st0" d="M42.1,87.1c3.4,0,6.7,0,10.1,0c1.7,0,2.8,1,2.8,2.4c0,1.5-1.1,2.4-2.8,2.4c-6.8,0-13.6,0-20.4,0
			c-1.7,0-2.8-1-2.8-2.4s1.1-2.4,2.8-2.4C35.2,87.1,38.6,87.1,42.1,87.1z"/>
		<path class="st0" d="M33.8,21c-1.3,0-2.5-1.1-2.5-2.4s1.1-2.4,2.4-2.5c1.4-0.1,2.5,1,2.6,2.3C36.3,19.9,35.1,21,33.8,21z"/>
		<path class="st0" d="M83.6,56.6c0.9,0,1.9,0,2.8,0c0.8,0,1.1-0.3,1.1-1.1c0-1.8,0-3.6,0-5.4c0-1,0.3-1.9,1.1-2.5
			c1.6-1.1,3.7,0,3.9,2.1c0.1,1.7,0,3.4,0,5.2c0,1.7,0,1.7,1.8,1.7c1.6,0,3.3,0,4.9,0c1.5,0,2.6,1,2.6,2.4s-1.1,2.4-2.6,2.4
			c-1.8,0-3.7,0-5.5,0c-0.9,0-1.3,0.3-1.2,1.2c0,1.8,0,3.7,0,5.5c-0.1,1.6-1.1,2.7-2.5,2.6c-1.4,0-2.4-1.1-2.5-2.7c0-1.7,0-3.4,0-5
			s0-1.6-1.7-1.6c-1.6,0-3.3,0-4.9,0s-2.7-1-2.7-2.4s1.1-2.4,2.7-2.5C81.8,56.6,82.7,56.6,83.6,56.6L83.6,56.6z"/>
		<path class="st0" d="M56.1,115.9c-2.7,0-5.3,0-8,0c-1.6,0-2.7-1-2.8-2.4c0-1.4,1.1-2.5,2.8-2.5c5.3,0,10.5,0,15.8,0
			c1.6,0,2.7,1,2.8,2.4c0,1.4-1.1,2.5-2.8,2.5C61.3,115.9,58.7,115.9,56.1,115.9z"/>
	</g>
</g>
<g id="j2MUFD.tif">
	<g>
		<path class="st1" d="M199.8,76.5c1.1-3.5,3.4-6.2,5.3-9.2c4.3-6.8,8.6-13.5,12.9-20.2c3-4.6,8.3-5.7,12.8-2.6
			c1,0.7,2.1,1.4,3.1,2.1c2.1,1.5,3.2,3.6,3.3,6.2c0,1,0.4,1.3,1.3,1.3c5.4-0.5,10.2,1.1,14.4,4.4c0.4,0.3,0.9,0.4,1.4,0.2
			c3-0.7,6.1-1.3,9-2.1c2.2-0.6,4.4-0.5,6.6,0.1c1.7,0.5,3.3,1,5,1.4c2.7,0.6,5.3,0.2,7.9-0.6c1.7-0.6,3.4-1.2,5.1-1.8
			c0.6-0.2,0.9-0.4,0.8-1.2c-0.5-4,1-6.8,4.6-8.7c1.2-0.6,2.4-1.2,3.6-1.9c4.3-2.2,8.8-0.8,11,3.5c3.1,5.9,6.2,11.9,9.3,17.8
			c1.8,3.5,3.5,7,5.4,10.5c2.4,4.3,0.2,8.8-3.3,10.6c-1.4,0.7-2.7,1.5-4.1,2.2c-3.5,1.7-6.7,1.2-9.4-1.5c-0.8-0.8-1.5-0.8-2.5-0.6
			c-3.7,0.9-6.1,3.8-8.9,5.8c-0.2,0.1-0.4,0.3-0.6,0.5c-1.6,1.2-3,2.2-2.9,4.8c0.1,3.5-2.2,5.6-5.6,6.6c-0.9,0.2-1.2,0.6-1.3,1.5
			c-0.6,3-2.5,5.1-5.5,5.9c-0.9,0.2-1.3,0.7-1.5,1.6c-0.6,3.1-2.5,5.1-5.5,5.9c-0.8,0.2-1.2,0.6-1.4,1.5c-1.4,6.1-7.5,8.5-12.6,4.8
			c-1.7-1.2-3-2.5-5.2-1c-1.3,0.9-3,0.2-4.1-0.8c-1.7-1.5-3.6-2.8-4.9-4.7c-0.8-1.1-1.6-1.8-2.9-2.4c-2.1-0.8-3.5-2.6-4.6-4.5
			c-0.4-0.6-0.7-1-1.5-1.1c-3.3-0.5-5.4-2.6-6.9-5.3c-0.4-0.7-0.8-1-1.5-1.3c-3.5-1.3-5.8-3.8-7-7.2c-0.6-1.8,0-3.5,1.1-5
			c0.3-0.5,0.6-0.9,0-1.4c-1.2-1-2.6-1.9-3.5-3.2c-0.3-0.4-0.7-0.2-1,0c-3,1.6-5.8,1.4-8.5-0.6c-0.8-0.5-1.5-1-2.3-1.5
			c-2.5-1.4-4.2-3.4-4.9-6.2C199.8,78.3,199.8,77.4,199.8,76.5z M246,60.5c-0.7-0.2-1.2-0.4-1.6-0.5c-2.9-0.8-5.8-0.6-8.7-0.3
			c-0.7,0.1-1.2,0.3-1.5,0.9c-4.4,6.9-8.8,13.9-13.2,20.8c-0.4,0.7-0.4,1.2,0,1.8c0.8,1.2,2,2,3,3c0.8,0.8,1.4,0.8,2.4,0.1
			c3.8-2.5,8.2-1.6,10.5,2.3c0.6,1,1.1,1.4,2.2,0.9c0.6-0.2,1.2-0.1,1.9,0c3.9,0.8,5.8,2.6,6.6,6.7c0.1,0.7,0.3,1.2,1.1,1.4
			c3.9,1,6.6,6.1,5.5,9.5c-0.2,0.6,0,1,0.5,1.4c3.4,2.1,4.6,5.1,3.8,9c-0.1,0.4-0.2,0.8,0.2,1.2c0.9,0.8,1.7,1.7,2.7,2.5
			c0.9,0.7,2.3,0.5,3-0.3c0.8-0.9,0.8-1.9,0.2-2.9c-0.2-0.4-0.6-0.7-0.9-1c-1.5-1.4-3.1-2.7-4.6-4.1c-1.2-1.2-1.5-2.6-0.8-3.7
			c0.8-1.2,2-1.5,3.7-0.8c0.5,0.2,0.9,0.5,1.2,0.8c1.4,1.3,2.9,2.6,4.3,3.8c0.8,0.7,1.8,0.8,2.8,0.4c0.8-0.3,1.4-1,1.5-1.9
			c0.1-1-0.4-1.8-1.1-2.4c-2-1.9-4.1-3.9-6.1-5.8c-1.2-1.2-1.3-2.7-0.3-3.8c0.9-1,2.4-1.1,3.7-0.2c0.4,0.3,0.7,0.6,1,0.9
			c1.6,1.6,3.2,3.2,4.9,4.7c0.4,0.4,0.8,0.8,1.3,1c1.6,1,3.4,0,3.5-1.9c0.1-1.1-0.6-1.9-1.4-2.5c-2.4-2-4.7-4-7-6.1
			c-1-0.9-1.2-2.1-0.7-3.2s1.7-1.7,2.9-1.5c0.7,0.1,1.2,0.5,1.7,1c2.5,2.2,5,4.3,7.5,6.5c1,0.8,2,0.8,2.9,0.1c0.8-0.7,1.1-2,0.6-3
			c-0.2-0.4-0.5-0.8-0.9-1.1c-6.5-5.7-13-11.3-19.5-17c-1-0.9-2-1.1-3.2-0.8c-2.3,0.5-4.6,1.1-7,1.5s-4.6,1.3-7.2,0.9
			c-4.8-0.8-8.4-5.5-7.8-10.3C240.1,64.7,242.1,62.1,246,60.5z M244.6,69.5c-0.1,2.6,2.3,4.6,5,4c3.6-0.7,7.2-1.5,10.8-2.3
			c2.6-0.6,5.1-0.2,7.1,1.4c3.6,2.8,7.1,5.7,10.6,8.7c3.1,2.7,6,5.5,9,8.3c0.6,0.6,1,0.5,1.6,0c1.8-1.4,3.6-2.8,5.3-4.2
			c2.2-1.7,4.2-3.6,7.1-4.1c1.2-0.2,1.1-0.8,0.6-1.7c-3.1-5.9-6.1-11.8-9.1-17.6c-1.2-2.3-1.2-2.3-3.5-1.2c-3.5,1.7-7,3-10.9,3
			c-3.3,0-6.4-1-9.6-1.9c-1.1-0.3-2.1-0.4-3.2-0.2c-5.8,1.5-11.7,3-17.6,3.9C246,65.8,244.7,67.6,244.6,69.5z M231.7,53.4
			c0-0.9-0.3-1.5-1.1-2c-1.1-0.7-2.2-1.5-3.3-2.3c-2.1-1.5-3.2-1.3-4.6,0.9c-3.3,5.1-6.5,10.1-9.8,15.2c-2.3,3.6-4.7,7.3-7,10.9
			c-1.2,1.8-0.9,2.9,0.8,4.1c1.1,0.7,2.1,1.5,3.2,2.2c1.7,1.1,3.1,0.9,4.2-0.8c5.7-8.8,11.4-17.7,17-26.5
			C231.5,54.6,231.7,54,231.7,53.4z M318.2,78.7c0.1-0.6-0.3-1.1-0.6-1.7c-2.1-4.2-4.3-8.3-6.4-12.5c-2.7-5.2-5.4-10.4-8.1-15.6
			c-0.9-1.6-1.8-1.9-3.4-1.1c-1.2,0.6-2.3,1.2-3.4,1.8c-2.3,1.2-2.6,2.2-1.5,4.6c0.9,1.8,1.9,3.6,2.8,5.5
			c3.8,7.3,7.6,14.6,11.5,21.9c1,1.9,2.3,2.3,4.2,1.3c1.2-0.6,2.4-1.2,3.5-1.9C317.6,80.6,318.2,79.9,318.2,78.7z M241.2,97.3
			c-0.1-0.9-0.6-1.7-1.6-2.1c-1-0.5-1.7-0.1-2.3,0.6c-1.3,1.4-2.5,2.8-3.8,4.1c-2.2,2.3-2.2,2.4,0.1,4.6c1.1,1.1,1.6,1.1,2.7,0
			c1.7-1.7,3.1-3.7,4.6-5.6C241.1,98.5,241.2,98,241.2,97.3z M248,105.4c-0.2-0.9-0.5-1.7-1.3-2.2s-1.6-0.2-2.2,0.3
			c-1.3,1-2.4,2.3-3.5,3.6c-1.3,1.5-1.3,1.6,0,3.1c0.3,0.3,0.7,0.6,1,0.9c0.7,0.8,1.4,0.5,2.1-0.1c1.5-1.4,2.6-3.1,3.7-4.9
			C247.9,105.8,247.9,105.6,248,105.4z M229.5,90.4c-0.4,0-0.9,0.2-1.3,0.5c-1.6,1.1-2.7,2.8-3.9,4.2c-0.6,0.7-0.1,1.3,0.4,1.7
			c0.8,0.7,1.3,1.9,2.7,1.7c0,0,0.1,0,0.1-0.1c1.6-1.4,3.2-2.8,4-4.7C232.1,92.4,230.9,90.5,229.5,90.4z M253,115.9
			c0-1.6-1-2.8-2-2.9c-0.8-0.1-3,1.5-3.2,2.2c-0.1,0.3,0.1,0.5,0.3,0.7c0.8,0.8,1.6,1.6,2.4,2.4c0.2,0.2,0.5,0.5,0.8,0.2
			C252.1,117.6,253,116.8,253,115.9z"/>
		<path class="st1" d="M265.7,3.3c4.5,0.7,8.7,2.3,12.3,5.3c5.1,4.3,8,9.7,8.7,16.3c1.2,12.1-7.3,23.5-19.6,25.7
			c-12.8,2.3-25.7-6.8-27.6-19.6c-2-13.6,6.7-25.4,20.2-27.5c0.2,0,0.3-0.1,0.5-0.1C262,3.3,263.8,3.3,265.7,3.3z M281.3,27.1
			c0-10.3-8.1-18.4-18.3-18.4c-10.2,0-18.4,8.1-18.4,18.3c0,10.3,8.1,18.5,18.4,18.5C273.2,45.4,281.2,37.3,281.3,27.1z"/>
		<path class="st1" d="M250,24.6c1,0,1.7,0.5,2.4,1.2c1.7,1.7,3.5,3.4,5.1,5.2c0.8,0.9,1.3,0.9,2.2,0c4.6-4.7,9.3-9.4,14-14.1
			c1.6-1.6,3.8-1.3,4.6,0.7c0.5,1.3,0,2.3-0.9,3.2c-3,3-6,6-9,9c-2.5,2.5-5.1,5.1-7.6,7.6c-1.6,1.6-2.9,1.6-4.4,0
			c-2.7-2.7-5.3-5.3-8-8c-0.9-0.9-1.3-1.9-0.7-3.1C248.1,25.3,248.9,24.7,250,24.6z"/>
	</g>
</g>
<g id="nyl31s.tif">
	<g>
		<path class="st1" d="M437.2,123.5c-6.5-2.2-12.9-4.5-19.4-6.7c-9.7-3.3-19.3-6.6-29-10c-0.5-0.2-1-0.3-1.5-0.5
			c-1.5-0.6-2.2-1.7-2.2-3.2s0.8-2.6,2.3-3.1c2.7-1,5.5-1.9,8.3-2.8c7.9-2.7,15.8-5.4,23.7-8.1c1.3-0.4,1.3-0.5,0.5-1.6
			c-5.8-7.7-11.3-15.7-15.5-24.4c-2.2-4.4-4-8.9-4.7-13.8s-0.1-9.8,1.4-14.4c5.2-15.5,15.9-24.9,32-27.3c19.9-3.1,38.7,10.2,43.3,30
			c1.9,8.1,0.6,15.7-2.8,23.1c-4.4,9.5-10.2,18-16.4,26.4c-1.3,1.8-1.3,1.5,0.7,2.2c10.3,3.6,20.7,7.1,31,10.7
			c1.4,0.5,2.5,1.2,2.7,2.7c0.3,1.8-0.5,3.2-2.3,3.8c-4.8,1.7-9.6,3.3-14.5,5c-11.4,3.9-22.8,7.8-34.2,11.8c-0.4,0.1-0.7,0.3-1,0.4
			C438.8,123.5,438,123.5,437.2,123.5z M438.4,13.9c-0.9,0-1.7,0-2.6,0c-0.4,0-0.8,0.1-1.2,0.2c-12.3,1.8-21,8.4-25.9,19.7
			c-2.5,5.6-3.3,11.5-1.7,17.6c1.4,5.2,3.9,10,6.6,14.6c6.9,11.7,15.2,22.4,24,32.7c0.7,0.9,1.1,0.5,1.7-0.2
			c4.7-5.5,9.2-11,13.4-16.8c5.5-7.6,10.8-15.3,14.7-23.9c2.4-5.2,3.8-10.6,2.9-16.4C467.8,25.5,454.4,13.9,438.4,13.9z
			 M398.9,103.1c0.6,0.2,0.8,0.4,1.1,0.5c12.4,4.3,24.9,8.6,37.3,12.8c0.7,0.3,1.4,0.2,2.1-0.1c12.1-4.2,24.3-8.3,36.4-12.5
			c0.6-0.2,1.2-0.4,1.9-0.7c-0.3-0.2-0.5-0.2-0.6-0.3c-8.3-2.8-16.5-5.7-24.8-8.5c-0.7-0.2-1,0.1-1.4,0.6c-3.1,3.9-6.4,7.8-9.8,11.5
			c-1.8,2-4,2-5.7,0c-3.3-3.7-6.5-7.4-9.5-11.3c-0.7-0.9-1.3-1-2.3-0.6c-5.3,1.9-10.7,3.7-16,5.5C404.9,101.1,402,102,398.9,103.1z"
			/>
		<path class="st1" d="M455,44.2c0,9.2-7.4,16.7-16.7,16.7c-9.3,0-16.7-7.5-16.6-16.8c0-9.2,7.5-16.7,16.7-16.7
			C447.6,27.5,455,35,455,44.2z M428.4,44.1c0,5.5,4.4,10,9.9,10.1c5.5,0,10-4.4,10-9.9c0-5.6-4.4-10.1-9.9-10.1
			C433,34.1,428.4,38.7,428.4,44.1z"/>
	</g>
</g>
<g id="nLZIEm.tif">
	<g>
		<path class="st1" d="M568.7,13c18.1,0,36.3,0,54.4,0c1.4,0.7,1.8,1.9,1.8,3.4c0,5.1,0,10.1,0,15.2c0,0.8,0.2,1.3,0.9,1.7
			c2.4,1.3,4.8,2.7,7.1,4.1c0.6,0.4,1.1,0.4,1.7,0c2.3-1.4,4.5-2.7,6.8-4c0.8-0.5,1.1-1,1.1-2c0-5,0-10,0-15c0-1.5,0.4-2.7,1.8-3.5
			c0.7,0,1.3,0,2,0c4.6,2.6,8.2,6.3,10.7,11c1.5,2.9,2.3,6,2.8,9.1c0,1.8,0,3.6,0,5.4c-0.1,0.3-0.1,0.6-0.2,1
			c-1.1,7.1-4.6,12.9-10.4,17.3c-0.9,0.6-1.2,1.3-1.2,2.3c0,10.6,0,21.2,0,31.8c0,1.6,0,3.1-0.1,4.7c-0.5,6.9-6.9,12.8-13.8,12.5
			c-6.3-0.3-11.2-4-13-10.1c-0.3-0.9-0.7-1.2-1.6-1.2c-3.3,0-6.6,0-10,0c-0.8,0-1.4,0.3-2,0.9c-3.4,3.5-6.9,6.9-10.4,10.3
			c-2.9,2.9-5.9,5.9-8.8,8.8c-2.9,2.8-6.8,3.3-10.1,1.3c-2.8-1.7-4.1-4.3-4.1-7.5c0-4.1,0-8.2,0-12.3c0-1-0.4-1.4-1.4-1.4
			s-2,0-3-0.1c-10.1-0.8-17.9-9.2-18-19.3c0-15,0-30,0-45.1c0-6.2,2.6-11.2,7.3-15.2C561.8,14.9,565.1,13.6,568.7,13z M591.4,18.4
			c-6.5,0-13,0-19.5,0c-1.1,0-2.2,0-3.2,0.2c-6.8,1.3-11.4,6.8-11.5,13.7c-0.1,4.8,0,9.7,0,14.5c0,10.1,0.1,20.2,0,30.3
			c-0.1,7.9,6.5,14.5,14.4,14.3c1.7,0,3.4,0,5.1,0c1.7,0,2.8,1.1,2.9,2.9c0,0.4,0,0.9,0,1.3c0,5.1,0,10.2,0,15.3
			c0,2,1.5,3.2,3.3,2.9c0.9-0.1,1.5-0.7,2.1-1.3c6.5-6.5,13.1-13,19.6-19.5c1.1-1.1,2.2-1.6,3.7-1.5c3.6,0.1,7.2,0,10.7,0
			c1.3,0,1.4-0.1,1.4-1.4c0-10.2,0-20.4,0-30.6c0-0.8-0.3-1.3-0.9-1.8c-12.9-8.4-15.7-25.9-6.1-38c0.3-0.3,0.8-0.6,0.6-1
			s-0.8-0.2-1.2-0.2C605.7,18.4,598.5,18.4,591.4,18.4z M648.2,21.4c-0.3,0.4-0.1,0.8-0.1,1.1c0,3.7,0,7.4,0,11.2
			c0,1.4-0.5,2.5-1.8,3.2c-3.6,2-7.1,4.1-10.7,6.2c-1.3,0.8-2.5,0.7-3.8,0c-3.3-2-6.6-3.9-9.9-5.7c-1.9-1-2.6-2.4-2.5-4.4
			c0.1-3.5,0-6.9,0-10.4c0-0.3,0.2-0.7-0.2-0.9c-0.3-0.1-0.5,0.3-0.7,0.5c-0.1,0.1-0.2,0.2-0.3,0.3c-8.4,9.6-5.8,24.9,5.4,31.2
			c1.8,1,2.5,2.3,2.5,4.3c-0.1,12.2,0,24.3,0,36.5c0,4.5,3.7,8.1,8.2,8.2c4.6,0.1,8.4-3.7,8.4-8.4c0-12.3,0-24.6,0-36.8
			c0-2,0.6-3.2,2.3-4.2c10.8-6.7,12.7-21.8,4.2-31.2C648.7,21.8,648.6,21.5,648.2,21.4z"/>
		<path class="st1" d="M588.4,70.3c-6.1,0-12.2,0-18.3,0c-1.9,0-3.1-1.1-3-2.8c0-1.2,0.8-2.3,2-2.5c0.6-0.1,1.2-0.2,1.8-0.2
			c11.8,0,23.5,0,35.3,0c0.5,0,1.1,0,1.6,0.1c1.4,0.3,2.3,1.4,2.2,2.8c-0.1,1.3-1,2.3-2.4,2.5c-0.4,0.1-0.9,0-1.3,0
			C600.3,70.3,594.4,70.3,588.4,70.3z"/>
		<path class="st1" d="M582.4,52.2c4.2,0,8.3,0,12.5,0c1.9,0,3.1,1.2,3,2.9c-0.1,1.2-0.9,2.1-2,2.4c-0.7,0.1-1.4,0.2-2,0.2
			c-7.5,0-15.1,0-22.6,0c-0.5,0-1.1,0-1.6-0.1c-1.6-0.2-2.5-1.3-2.4-2.9c0.1-1.4,1.2-2.4,2.8-2.5c1.7,0,3.5,0,5.2,0
			C577.5,52.2,579.9,52.2,582.4,52.2z"/>
		<path class="st1" d="M578.1,44.9c-2.6,0-5.3,0-7.9,0c-1.9,0-3-1-3.1-2.6c-0.1-1.7,1.1-2.8,3-2.9c5.4,0,10.8,0,16.1,0
			c1.9,0,3.1,1.2,3,2.8s-1.2,2.6-3.1,2.6C583.4,44.9,580.7,44.9,578.1,44.9z"/>
	</g>
</g>
</svg>
