<?xml version="1.0" encoding="utf-8"?>
<!-- Generator: Adobe Illustrator 27.9.0, SVG Export Plug-In . SVG Version: 6.00 Build 0)  -->
<svg version="1.1" id="Camada_1" xmlns="http://www.w3.org/2000/svg" xmlns:xlink="http://www.w3.org/1999/xlink" x="0px" y="0px"
	 viewBox="0 0 115.6 19.6" style="enable-background:new 0 0 115.6 19.6;" xml:space="preserve">
<style type="text/css">
	.st0{fill:#00C866;}
</style>
<g>
	<path class="st0" d="M8.9,19.6l-4.1-7H1.7v7H0V2.9h5c1.9,0,3.3,0.4,4.2,1.3c1,0.9,1.4,2.1,1.4,3.5c0,1.2-0.3,2.2-1,3.1
		C9,11.7,8,12.2,6.6,12.5l4.3,7.1H8.9z M1.7,11.2H5c1.3,0,2.3-0.3,3-1c0.7-0.6,1-1.5,1-2.6c0-1.1-0.3-1.9-1-2.5
		C7.4,4.6,6.4,4.3,5,4.3H1.7V11.2z"/>
	<path class="st0" d="M15.8,18.9c-1-0.5-1.8-1.3-2.3-2.3c-0.6-1-0.8-2.2-0.8-3.5s0.3-2.5,0.9-3.5c0.6-1,1.4-1.8,2.3-2.3
		s2.1-0.8,3.3-0.8c1.2,0,2.3,0.3,3.3,0.8s1.8,1.3,2.3,2.3c0.6,1,0.8,2.2,0.8,3.5c0,1.3-0.3,2.5-0.9,3.5c-0.6,1-1.4,1.8-2.4,2.4
		c-1,0.5-2.1,0.8-3.3,0.8S16.8,19.5,15.8,18.9z M21.5,17.7c0.7-0.4,1.3-1,1.8-1.8c0.5-0.8,0.7-1.8,0.7-2.9c0-1.1-0.2-2.1-0.7-2.9
		c-0.4-0.8-1-1.4-1.8-1.8C20.8,8,20,7.8,19.1,7.8S17.5,8,16.7,8.4s-1.3,1-1.8,1.8c-0.4,0.8-0.7,1.8-0.7,2.9c0,1.1,0.2,2.1,0.7,2.9
		c0.4,0.8,1,1.4,1.7,1.8c0.7,0.4,1.5,0.6,2.4,0.6S20.8,18.1,21.5,17.7z"/>
	<path class="st0" d="M28.6,9.5c0.5-1,1.3-1.8,2.2-2.3c0.9-0.5,2-0.8,3.2-0.8c1.1,0,2.2,0.3,3.1,0.8c0.9,0.6,1.6,1.3,2,2.2V1.9h1.7
		v17.7h-1.7v-2.9c-0.4,0.9-1.1,1.7-2,2.2c-0.9,0.6-2,0.9-3.2,0.9c-1.2,0-2.3-0.3-3.2-0.8c-0.9-0.6-1.7-1.3-2.2-2.4
		c-0.5-1-0.8-2.2-0.8-3.5C27.8,11.7,28,10.5,28.6,9.5z M38.5,10.3c-0.4-0.8-1-1.4-1.8-1.8C36,8,35.2,7.8,34.3,7.8
		c-0.9,0-1.8,0.2-2.5,0.6c-0.7,0.4-1.3,1-1.7,1.8c-0.4,0.8-0.6,1.7-0.6,2.8c0,1.1,0.2,2,0.6,2.8c0.4,0.8,1,1.4,1.7,1.8
		c0.7,0.4,1.6,0.6,2.5,0.6c0.9,0,1.7-0.2,2.4-0.6c0.7-0.4,1.3-1,1.8-1.8s0.6-1.7,0.6-2.8S38.9,11.1,38.5,10.3z"/>
	<path class="st0" d="M44.5,9.5c0.5-1,1.3-1.8,2.2-2.3c0.9-0.5,2-0.8,3.2-0.8c1.2,0,2.3,0.3,3.2,0.9c0.9,0.6,1.5,1.3,1.9,2.2V6.5
		h1.7v13h-1.7v-2.9c-0.4,0.9-1.1,1.6-2,2.2c-0.9,0.6-2,0.9-3.2,0.9c-1.2,0-2.2-0.3-3.2-0.8c-0.9-0.6-1.7-1.3-2.2-2.4
		c-0.5-1-0.8-2.2-0.8-3.5C43.7,11.7,43.9,10.5,44.5,9.5z M54.4,10.3c-0.4-0.8-1-1.4-1.8-1.8c-0.7-0.4-1.6-0.6-2.4-0.6
		c-0.9,0-1.8,0.2-2.5,0.6c-0.7,0.4-1.3,1-1.7,1.8c-0.4,0.8-0.6,1.7-0.6,2.8c0,1.1,0.2,2,0.6,2.8c0.4,0.8,1,1.4,1.7,1.8
		c0.7,0.4,1.6,0.6,2.5,0.6c0.9,0,1.7-0.2,2.4-0.6c0.7-0.4,1.3-1,1.8-1.8s0.6-1.7,0.6-2.8S54.8,11.1,54.4,10.3z"/>
	<path class="st0" d="M64.3,16.4h5.4v3.2h-9.4V2.8h4.1V16.4z"/>
	<path class="st0" d="M71.4,4.2c-0.5-0.4-0.7-0.9-0.7-1.6c0-0.6,0.2-1.2,0.7-1.6c0.5-0.4,1-0.6,1.8-0.6c0.7,0,1.3,0.2,1.7,0.6
		c0.5,0.4,0.7,1,0.7,1.6c0,0.6-0.2,1.1-0.7,1.6s-1,0.6-1.7,0.6C72.5,4.8,71.9,4.6,71.4,4.2z M75.2,6.2v13.3h-4.1V6.2H75.2z"/>
	<path class="st0" d="M83.8,15.7l2.9-9.5h4.3l-4.7,13.3h-5L76.6,6.2h4.4L83.8,15.7z"/>
	<path class="st0" d="M98.3,6.7c0.7-0.4,1.5-0.6,2.4-0.6v4.3h-1.1c-1,0-1.8,0.2-2.3,0.7c-0.5,0.4-0.8,1.2-0.8,2.3v6.2h-4.1V6.2h4.1
		v2.2C97,7.7,97.6,7.1,98.3,6.7z"/>
	<path class="st0" d="M114.9,13.9h-9.2c0.1,0.8,0.3,1.5,0.8,1.9c0.5,0.4,1,0.7,1.7,0.7c1,0,1.7-0.4,2.1-1.3h4.3
		c-0.2,0.9-0.6,1.7-1.2,2.4c-0.6,0.7-1.3,1.3-2.2,1.6s-1.9,0.6-2.9,0.6c-1.3,0-2.5-0.3-3.5-0.8c-1-0.6-1.8-1.4-2.4-2.4
		c-0.6-1-0.9-2.2-0.9-3.6c0-1.4,0.3-2.6,0.8-3.6s1.4-1.8,2.4-2.4c1-0.6,2.2-0.8,3.5-0.8c1.3,0,2.4,0.3,3.4,0.8
		c1,0.5,1.8,1.3,2.4,2.3c0.6,1,0.8,2.2,0.8,3.5C115,13.1,114.9,13.5,114.9,13.9z M110.8,11.6c0-0.7-0.2-1.3-0.7-1.7
		c-0.5-0.4-1.1-0.6-1.8-0.6c-0.7,0-1.3,0.2-1.7,0.6c-0.5,0.4-0.8,1-0.9,1.7H110.8z"/>
</g>
</svg>
