<?xml version="1.0" encoding="utf-8"?>
<!-- Generator: Adobe Illustrator 27.9.0, SVG Export Plug-In . SVG Version: 6.00 Build 0)  -->
<svg version="1.1" id="Camada_1" xmlns="http://www.w3.org/2000/svg" xmlns:xlink="http://www.w3.org/1999/xlink" x="0px" y="0px"
	 viewBox="0 0 130 130" style="enable-background:new 0 0 130 130;" xml:space="preserve">
<style type="text/css">
	.st0{fill:#73CF9A;}
	.st1{fill:#00C866;}
</style>
<g id="_x35_cNg0Z.tif">
	<g>
		<path class="st0" d="M-178.6,114c0-32.6,0-65.1,0-97.7c1.2-6.1,4.7-9.9,10.8-11.3c17.9,0,35.8,0,53.8,0
			c6.7,1.4,11.1,6.9,10.9,14.2c-0.2,5.6,0,11.3,0,16.9c0,1.6,0,1.7,1.6,1.7c5.9,0,11.8,0,17.7,0c1,0,1.9,0.2,2.5,1.2
			c0.5,0.7,0.4,1.6,0.4,2.4c0,11.8,0,23.6,0,35.3c0,2.8-0.7,3.6-3.5,3.6c-5.7,0-11.5,0-17.2,0c-1.5,0-1.5,0.1-1.5,1.5
			c0,0.4,0,0.9,0,1.3c0,9.7,0,19.3,0,29c0,7.7-5.7,13.3-13.3,13.3c-16.4,0-32.9,0-49.3,0c-3.5,0-6.4-1.3-8.9-3.7
			C-176.9,119.6-178.1,116.9-178.6,114z M-108.4,82.5c-0.4,0.3-0.6,0.5-0.8,0.7c-2.9,2.6-5.8,5.2-8.7,7.8c-0.5,0.4-1,0.9-1.7,1
			c-1.6,0.2-2.8-0.8-2.9-2.7c-0.1-2.5,0-4.9,0-7.4c0-1.5-0.1-1.6-1.6-1.6c-1.8,0-3.7,0-5.5,0c-2.4,0-3.2-0.8-3.2-3.3
			c0-12,0-24,0-35.9c0-2.4,0.9-3.3,3.2-3.3c6.6,0,13.2,0,19.8,0c1.5,0,1.6,0,1.6-1.6c0-6,0-12.1,0-18.1c0-0.6,0-1.3-0.1-1.9
			c-0.8-3.9-4.1-6.4-8.4-6.4c-8,0-16,0-23.9,0c-8.1,0-16.3,0-24.4,0c-5,0-8.5,3.4-8.5,8.1c0,27.4,0,54.9,0,82.3
			c0,1.1,0.4,1.5,1.5,1.5c20.8,0,41.6,0,62.4,0c1.1,0,1.5-0.4,1.5-1.5c0-5.5,0-11,0-16.6C-108.3,83.3-108.3,83-108.4,82.5z
			 M-106.9,42.7c-6.5,0-13.1,0-19.6,0c-1,0-1.4,0.3-1.4,1.4c0,10,0,20,0,29.9c0,1.1,0.3,1.5,1.4,1.4c2-0.1,4,0,6,0c2.1,0,3,0.9,3,3
			c0,1.4,0,2.8,0,4.2c0,0.3-0.2,0.8,0.2,0.9c0.3,0.1,0.5-0.3,0.8-0.5c2.4-2.2,4.9-4.4,7.3-6.6c0.9-0.8,1.8-1.1,3-1.1
			c6.2,0,12.4,0,18.7,0c1.6,0,1.6,0,1.6-1.6c0-9.9,0-19.7,0-29.6c0-1.5,0-1.6-1.6-1.6C-94,42.7-100.5,42.7-106.9,42.7z
			 M-140.8,106.5c-2.2,0-4.4,0-6.6,0c-8.3,0-16.5,0-24.8,0c-1.1,0-1.5,0.3-1.5,1.5c0.1,1.6,0,3.1,0,4.7c0,1.4,0.4,2.6,1.1,3.8
			c1.7,2.8,4.3,4,7.5,4c7.5,0,14.9,0,22.4,0c8.6,0,17.2,0,25.8,0c5.9,0,8.8-4.6,8.5-8.6c-0.1-1.2,0-2.4,0-3.6c0-1.7,0-1.7-1.7-1.7
			C-120.3,106.5-130.6,106.5-140.8,106.5z"/>
		<path class="st0" d="M-136.2,16.2c5.7,0,11.5,0,17.2,0c2.1,0,3.3,1.7,2.5,3.5c-0.4,0.9-1.2,1.4-2.2,1.4c-1.6,0-3.3,0-4.9,0
			c-9.7,0-19.3,0-29,0c-0.3,0-0.5,0-0.8,0c-1.8,0-3-1-3-2.4c0-1.5,1.1-2.4,3-2.4C-147.6,16.2-141.9,16.2-136.2,16.2z"/>
		<path class="st0" d="M-152.6,40.1c4.2,0,8.4,0,12.7,0c2,0,3.2,1.9,2.3,3.5c-0.5,0.9-1.2,1.3-2.2,1.3c-8.6,0-17.2,0-25.8,0
			c-1.4,0-2.5-1.1-2.5-2.4c0-1.4,1.1-2.4,2.6-2.4C-161.2,40.1-156.9,40.1-152.6,40.1z"/>
		<path class="st0" d="M-152.7,49.5c4.3,0,8.5,0,12.8,0c2,0,3.2,1.9,2.3,3.5c-0.5,0.9-1.2,1.3-2.2,1.3c-8.6,0-17.2,0-25.8,0
			c-1.4,0-2.5-1.1-2.5-2.4c0-1.4,1.1-2.4,2.6-2.4C-161.2,49.5-157,49.5-152.7,49.5z"/>
		<path class="st0" d="M-152.8,63.8c-4.2,0-8.4,0-12.7,0c-1.2,0-2-0.5-2.4-1.6c-0.4-1-0.1-1.8,0.6-2.6c0.5-0.5,1.1-0.7,1.8-0.7
			c8.5,0,17,0,25.6,0c1.5,0,2.6,1.1,2.6,2.4c0,1.4-1.1,2.4-2.6,2.4C-144.2,63.8-148.5,63.8-152.8,63.8z"/>
		<path class="st0" d="M-152.8,73.2c-4.2,0-8.4,0-12.7,0c-1.2,0-2-0.5-2.4-1.6c-0.4-1-0.1-1.8,0.6-2.6c0.5-0.5,1.1-0.7,1.8-0.7
			c8.5,0,17,0,25.6,0c1.5,0,2.6,1.1,2.6,2.4c0,1.4-1.1,2.4-2.6,2.4C-144.2,73.2-148.5,73.2-152.8,73.2z"/>
		<path class="st0" d="M-152.7,77.7c4.3,0,8.5,0,12.8,0c2,0,3.2,1.9,2.3,3.5c-0.5,0.9-1.2,1.3-2.2,1.3c-8.6,0-17.2,0-25.8,0
			c-1.4,0-2.5-1.1-2.5-2.4c0-1.4,1.1-2.4,2.6-2.4C-161.2,77.7-157,77.7-152.7,77.7z"/>
		<path class="st0" d="M-154.9,30.3c3.4,0,6.7,0,10.1,0c1.7,0,2.8,1,2.8,2.4s-1.1,2.4-2.9,2.4c-6.8,0-13.6,0-20.4,0
			c-1.7,0-2.8-1-2.8-2.4c0-1.4,1.1-2.4,2.9-2.4C-161.8,30.3-158.4,30.3-154.9,30.3z"/>
		<path class="st0" d="M-154.9,87.1c3.4,0,6.7,0,10.1,0c1.7,0,2.8,1,2.8,2.4c0,1.5-1.1,2.4-2.8,2.4c-6.8,0-13.6,0-20.4,0
			c-1.7,0-2.8-1-2.8-2.4s1.1-2.4,2.8-2.4C-161.8,87.1-158.4,87.1-154.9,87.1z"/>
		<path class="st0" d="M-163.2,21c-1.3,0-2.5-1.1-2.5-2.4s1.1-2.4,2.4-2.5c1.4-0.1,2.5,1,2.6,2.3C-160.7,19.9-161.9,21-163.2,21z"/>
		<path class="st0" d="M-113.4,56.6c0.9,0,1.9,0,2.8,0c0.8,0,1.1-0.3,1.1-1.1c0-1.8,0-3.6,0-5.4c0-1,0.3-1.9,1.1-2.5
			c1.6-1.1,3.7,0,3.9,2.1c0.1,1.7,0,3.4,0,5.2c0,1.7,0,1.7,1.8,1.7c1.6,0,3.3,0,4.9,0c1.5,0,2.6,1,2.6,2.4s-1.1,2.4-2.6,2.4
			c-1.8,0-3.7,0-5.5,0c-0.9,0-1.3,0.3-1.2,1.2c0,1.8,0,3.7,0,5.5c-0.1,1.6-1.1,2.7-2.5,2.6c-1.4,0-2.4-1.1-2.5-2.7c0-1.7,0-3.4,0-5
			s0-1.6-1.7-1.6c-1.6,0-3.3,0-4.9,0s-2.7-1-2.7-2.4s1.1-2.4,2.7-2.5C-115.2,56.6-114.3,56.6-113.4,56.6L-113.4,56.6z"/>
		<path class="st0" d="M-140.9,115.9c-2.7,0-5.3,0-8,0c-1.6,0-2.7-1-2.8-2.4c0-1.4,1.1-2.5,2.8-2.5c5.3,0,10.5,0,15.8,0
			c1.6,0,2.7,1,2.8,2.4c0,1.4-1.1,2.5-2.8,2.5C-135.7,115.9-138.3,115.9-140.9,115.9z"/>
	</g>
</g>
<g id="j2MUFD.tif">
	<g>
		<path class="st1" d="M2.8,76.5c1.1-3.5,3.4-6.2,5.3-9.2C12.4,60.5,16.7,53.8,21,47c3-4.6,8.3-5.7,12.8-2.6c1,0.7,2.1,1.4,3.1,2.1
			c2.1,1.5,3.2,3.6,3.3,6.2c0,1,0.4,1.3,1.3,1.3c5.4-0.5,10.2,1.1,14.4,4.4c0.4,0.3,0.9,0.4,1.4,0.2c3-0.7,6.1-1.3,9-2.1
			c2.2-0.6,4.4-0.5,6.6,0.1c1.7,0.5,3.3,1,5,1.4c2.7,0.6,5.3,0.2,7.9-0.6c1.7-0.6,3.4-1.2,5.1-1.8c0.6-0.2,0.9-0.4,0.8-1.2
			c-0.5-4,1-6.8,4.6-8.7c1.2-0.6,2.4-1.2,3.6-1.9c4.3-2.2,8.8-0.8,11,3.5c3.1,5.9,6.2,11.9,9.3,17.8c1.8,3.5,3.5,7,5.4,10.5
			c2.4,4.3,0.2,8.8-3.3,10.6c-1.4,0.7-2.7,1.5-4.1,2.2c-3.5,1.7-6.7,1.2-9.4-1.5c-0.8-0.8-1.5-0.8-2.5-0.6c-3.7,0.9-6.1,3.8-8.9,5.8
			c-0.2,0.1-0.4,0.3-0.6,0.5c-1.6,1.2-3,2.2-2.9,4.8c0.1,3.5-2.2,5.6-5.6,6.6c-0.9,0.2-1.2,0.6-1.3,1.5c-0.6,3-2.5,5.1-5.5,5.9
			c-0.9,0.2-1.3,0.7-1.5,1.6c-0.6,3.1-2.5,5.1-5.5,5.9c-0.8,0.2-1.2,0.6-1.4,1.5c-1.4,6.1-7.5,8.5-12.6,4.8c-1.7-1.2-3-2.5-5.2-1
			c-1.3,0.9-3,0.2-4.1-0.8c-1.7-1.5-3.6-2.8-4.9-4.7c-0.8-1.1-1.6-1.8-2.9-2.4c-2.1-0.8-3.5-2.6-4.6-4.5c-0.4-0.6-0.7-1-1.5-1.1
			c-3.3-0.5-5.4-2.6-6.9-5.3c-0.4-0.7-0.8-1-1.5-1.3c-3.5-1.3-5.8-3.8-7-7.2c-0.6-1.8,0-3.5,1.1-5c0.3-0.5,0.6-0.9,0-1.4
			c-1.2-1-2.6-1.9-3.5-3.2c-0.3-0.4-0.7-0.2-1,0c-3,1.6-5.8,1.4-8.5-0.6c-0.8-0.5-1.5-1-2.3-1.5c-2.5-1.4-4.2-3.4-4.9-6.2
			C2.8,78.3,2.8,77.4,2.8,76.5z M49,60.5c-0.7-0.2-1.2-0.4-1.6-0.5c-2.9-0.8-5.8-0.6-8.7-0.3c-0.7,0.1-1.2,0.3-1.5,0.9
			c-4.4,6.9-8.8,13.9-13.2,20.8c-0.4,0.7-0.4,1.2,0,1.8c0.8,1.2,2,2,3,3c0.8,0.8,1.4,0.8,2.4,0.1c3.8-2.5,8.2-1.6,10.5,2.3
			c0.6,1,1.1,1.4,2.2,0.9c0.6-0.2,1.2-0.1,1.9,0c3.9,0.8,5.8,2.6,6.6,6.7c0.1,0.7,0.3,1.2,1.1,1.4c3.9,1,6.6,6.1,5.5,9.5
			c-0.2,0.6,0,1,0.5,1.4c3.4,2.1,4.6,5.1,3.8,9c-0.1,0.4-0.2,0.8,0.2,1.2c0.9,0.8,1.7,1.7,2.7,2.5c0.9,0.7,2.3,0.5,3-0.3
			C68,120,68,119,67.5,118c-0.2-0.4-0.6-0.7-0.9-1c-1.5-1.4-3.1-2.7-4.6-4.1c-1.2-1.2-1.5-2.6-0.8-3.7c0.8-1.2,2-1.5,3.7-0.8
			c0.5,0.2,0.9,0.5,1.2,0.8c1.4,1.3,2.9,2.6,4.3,3.8c0.8,0.7,1.8,0.8,2.8,0.4c0.8-0.3,1.4-1,1.5-1.9c0.1-1-0.4-1.8-1.1-2.4
			c-2-1.9-4.1-3.9-6.1-5.8c-1.2-1.2-1.3-2.7-0.3-3.8c0.9-1,2.4-1.1,3.7-0.2c0.4,0.3,0.7,0.6,1,0.9c1.6,1.6,3.2,3.2,4.9,4.7
			c0.4,0.4,0.8,0.8,1.3,1c1.6,1,3.4,0,3.5-1.9c0.1-1.1-0.6-1.9-1.4-2.5c-2.4-2-4.7-4-7-6.1c-1-0.9-1.2-2.1-0.7-3.2s1.7-1.7,2.9-1.5
			c0.7,0.1,1.2,0.5,1.7,1c2.5,2.2,5,4.3,7.5,6.5c1,0.8,2,0.8,2.9,0.1c0.8-0.7,1.1-2,0.6-3c-0.2-0.4-0.5-0.8-0.9-1.1
			c-6.5-5.7-13-11.3-19.5-17c-1-0.9-2-1.1-3.2-0.8c-2.3,0.5-4.6,1.1-7,1.5s-4.6,1.3-7.2,0.9c-4.8-0.8-8.4-5.5-7.8-10.3
			C43.1,64.7,45.1,62.1,49,60.5z M47.6,69.5c-0.1,2.6,2.3,4.6,5,4c3.6-0.7,7.2-1.5,10.8-2.3c2.6-0.6,5.1-0.2,7.1,1.4
			c3.6,2.8,7.1,5.7,10.6,8.7c3.1,2.7,6,5.5,9,8.3c0.6,0.6,1,0.5,1.6,0c1.8-1.4,3.6-2.8,5.3-4.2c2.2-1.7,4.2-3.6,7.1-4.1
			c1.2-0.2,1.1-0.8,0.6-1.7c-3.1-5.9-6.1-11.8-9.1-17.6c-1.2-2.3-1.2-2.3-3.5-1.2c-3.5,1.7-7,3-10.9,3c-3.3,0-6.4-1-9.6-1.9
			c-1.1-0.3-2.1-0.4-3.2-0.2c-5.8,1.5-11.7,3-17.6,3.9C49,65.8,47.7,67.6,47.6,69.5z M34.7,53.4c0-0.9-0.3-1.5-1.1-2
			c-1.1-0.7-2.2-1.5-3.3-2.3c-2.1-1.5-3.2-1.3-4.6,0.9c-3.3,5.1-6.5,10.1-9.8,15.2c-2.3,3.6-4.7,7.3-7,10.9C7.8,77.9,8,79,9.8,80.2
			c1.1,0.7,2.1,1.5,3.2,2.2c1.7,1.1,3.1,0.9,4.2-0.8c5.7-8.8,11.4-17.7,17-26.5C34.5,54.6,34.7,54,34.7,53.4z M121.2,78.7
			c0.1-0.6-0.3-1.1-0.6-1.7c-2.1-4.2-4.3-8.3-6.4-12.5c-2.7-5.2-5.4-10.4-8.1-15.6c-0.9-1.6-1.8-1.9-3.4-1.1
			c-1.2,0.6-2.3,1.2-3.4,1.8c-2.3,1.2-2.6,2.2-1.5,4.6c0.9,1.8,1.9,3.6,2.8,5.5c3.8,7.3,7.6,14.6,11.5,21.9c1,1.9,2.3,2.3,4.2,1.3
			c1.2-0.6,2.4-1.2,3.5-1.9C120.6,80.6,121.2,79.9,121.2,78.7z M44.2,97.3c-0.1-0.9-0.6-1.7-1.6-2.1c-1-0.5-1.7-0.1-2.3,0.6
			c-1.3,1.4-2.5,2.8-3.8,4.1c-2.2,2.3-2.2,2.4,0.1,4.6c1.1,1.1,1.6,1.1,2.7,0c1.7-1.7,3.1-3.7,4.6-5.6C44.1,98.5,44.2,98,44.2,97.3z
			 M51,105.4c-0.2-0.9-0.5-1.7-1.3-2.2s-1.6-0.2-2.2,0.3c-1.3,1-2.4,2.3-3.5,3.6c-1.3,1.5-1.3,1.6,0,3.1c0.3,0.3,0.7,0.6,1,0.9
			c0.7,0.8,1.4,0.5,2.1-0.1c1.5-1.4,2.6-3.1,3.7-4.9C50.9,105.8,50.9,105.6,51,105.4z M32.5,90.4c-0.4,0-0.9,0.2-1.3,0.5
			c-1.6,1.1-2.7,2.8-3.9,4.2c-0.6,0.7-0.1,1.3,0.4,1.7c0.8,0.7,1.3,1.9,2.7,1.7c0,0,0.1,0,0.1-0.1c1.6-1.4,3.2-2.8,4-4.7
			C35.1,92.4,33.9,90.5,32.5,90.4z M56,115.9c0-1.6-1-2.8-2-2.9c-0.8-0.1-3,1.5-3.2,2.2c-0.1,0.3,0.1,0.5,0.3,0.7
			c0.8,0.8,1.6,1.6,2.4,2.4c0.2,0.2,0.5,0.5,0.8,0.2C55.1,117.6,56,116.8,56,115.9z"/>
		<path class="st1" d="M68.7,3.3C73.2,4,77.4,5.6,81,8.6c5.1,4.3,8,9.7,8.7,16.3C90.9,37,82.3,48.3,70,50.6
			C57.2,52.9,44.3,43.8,42.4,31c-2-13.6,6.7-25.4,20.2-27.5c0.2,0,0.3-0.1,0.5-0.1C65,3.3,66.8,3.3,68.7,3.3z M84.3,27.1
			c0-10.3-8.1-18.4-18.3-18.4S47.6,16.8,47.6,27c0,10.3,8.1,18.5,18.4,18.5C76.2,45.4,84.2,37.3,84.3,27.1z"/>
		<path class="st1" d="M53,24.6c1,0,1.7,0.5,2.4,1.2c1.7,1.7,3.5,3.4,5.1,5.2c0.8,0.9,1.3,0.9,2.2,0c4.6-4.7,9.3-9.4,14-14.1
			c1.6-1.6,3.8-1.3,4.6,0.7c0.5,1.3,0,2.3-0.9,3.2c-3,3-6,6-9,9c-2.5,2.5-5.1,5.1-7.6,7.6c-1.6,1.6-2.9,1.6-4.4,0
			c-2.7-2.7-5.3-5.3-8-8c-0.9-0.9-1.3-1.9-0.7-3.1C51.1,25.3,51.9,24.7,53,24.6z"/>
	</g>
</g>
<g id="nyl31s.tif">
	<g>
		<path class="st0" d="M240.2,123.5c-6.5-2.2-12.9-4.5-19.4-6.7c-9.7-3.3-19.3-6.6-29-10c-0.5-0.2-1-0.3-1.5-0.5
			c-1.5-0.6-2.2-1.7-2.2-3.2s0.8-2.6,2.3-3.1c2.7-1,5.5-1.9,8.3-2.8c7.9-2.7,15.8-5.4,23.7-8.1c1.3-0.4,1.3-0.5,0.5-1.6
			c-5.8-7.7-11.3-15.7-15.5-24.4c-2.2-4.4-4-8.9-4.7-13.8s-0.1-9.8,1.4-14.4c5.2-15.5,15.9-24.9,32-27.3c19.9-3.1,38.7,10.2,43.3,30
			c1.9,8.1,0.6,15.7-2.8,23.1c-4.4,9.5-10.2,18-16.4,26.4c-1.3,1.8-1.3,1.5,0.7,2.2c10.3,3.6,20.7,7.1,31,10.7
			c1.4,0.5,2.5,1.2,2.7,2.7c0.3,1.8-0.5,3.2-2.3,3.8c-4.8,1.7-9.6,3.3-14.5,5c-11.4,3.9-22.8,7.8-34.2,11.8c-0.4,0.1-0.7,0.3-1,0.4
			C241.8,123.5,241,123.5,240.2,123.5z M241.4,13.9c-0.9,0-1.7,0-2.6,0c-0.4,0-0.8,0.1-1.2,0.2c-12.3,1.8-21,8.4-25.9,19.7
			c-2.5,5.6-3.3,11.5-1.7,17.6c1.4,5.2,3.9,10,6.6,14.6c6.9,11.7,15.2,22.4,24,32.7c0.7,0.9,1.1,0.5,1.7-0.2
			c4.7-5.5,9.2-11,13.4-16.8c5.5-7.6,10.8-15.3,14.7-23.9c2.4-5.2,3.8-10.6,2.9-16.4C270.8,25.5,257.4,13.9,241.4,13.9z
			 M201.9,103.1c0.6,0.2,0.8,0.4,1.1,0.5c12.4,4.3,24.9,8.6,37.3,12.8c0.7,0.3,1.4,0.2,2.1-0.1c12.1-4.2,24.3-8.3,36.4-12.5
			c0.6-0.2,1.2-0.4,1.9-0.7c-0.3-0.2-0.5-0.2-0.6-0.3c-8.3-2.8-16.5-5.7-24.8-8.5c-0.7-0.2-1,0.1-1.4,0.6c-3.1,3.9-6.4,7.8-9.8,11.5
			c-1.8,2-4,2-5.7,0c-3.3-3.7-6.5-7.4-9.5-11.3c-0.7-0.9-1.3-1-2.3-0.6c-5.3,1.9-10.7,3.7-16,5.5C207.9,101.1,205,102,201.9,103.1z"
			/>
		<path class="st0" d="M258,44.2c0,9.2-7.4,16.7-16.7,16.7s-16.7-7.5-16.6-16.8c0-9.2,7.5-16.7,16.7-16.7
			C250.6,27.5,258,35,258,44.2z M231.4,44.1c0,5.5,4.4,10,9.9,10.1c5.5,0,10-4.4,10-9.9c0-5.6-4.4-10.1-9.9-10.1
			C236,34.1,231.4,38.7,231.4,44.1z"/>
	</g>
</g>
<g id="nLZIEm.tif">
	<g>
		<path class="st0" d="M371.7,13c18.1,0,36.3,0,54.4,0c1.4,0.7,1.8,1.9,1.8,3.4c0,5.1,0,10.1,0,15.2c0,0.8,0.2,1.3,0.9,1.7
			c2.4,1.3,4.8,2.7,7.1,4.1c0.6,0.4,1.1,0.4,1.7,0c2.3-1.4,4.5-2.7,6.8-4c0.8-0.5,1.1-1,1.1-2c0-5,0-10,0-15c0-1.5,0.4-2.7,1.8-3.5
			c0.7,0,1.3,0,2,0c4.6,2.6,8.2,6.3,10.7,11c1.5,2.9,2.3,6,2.8,9.1c0,1.8,0,3.6,0,5.4c-0.1,0.3-0.1,0.6-0.2,1
			c-1.1,7.1-4.6,12.9-10.4,17.3c-0.9,0.6-1.2,1.3-1.2,2.3c0,10.6,0,21.2,0,31.8c0,1.6,0,3.1-0.1,4.7c-0.5,6.9-6.9,12.8-13.8,12.5
			c-6.3-0.3-11.2-4-13-10.1c-0.3-0.9-0.7-1.2-1.6-1.2c-3.3,0-6.6,0-10,0c-0.8,0-1.4,0.3-2,0.9c-3.4,3.5-6.9,6.9-10.4,10.3
			c-2.9,2.9-5.9,5.9-8.8,8.8c-2.9,2.8-6.8,3.3-10.1,1.3c-2.8-1.7-4.1-4.3-4.1-7.5c0-4.1,0-8.2,0-12.3c0-1-0.4-1.4-1.4-1.4
			s-2,0-3-0.1c-10.1-0.8-17.9-9.2-18-19.3c0-15,0-30,0-45.1c0-6.2,2.6-11.2,7.3-15.2C364.8,14.9,368.1,13.6,371.7,13z M394.4,18.4
			c-6.5,0-13,0-19.5,0c-1.1,0-2.2,0-3.2,0.2c-6.8,1.3-11.4,6.8-11.5,13.7c-0.1,4.8,0,9.7,0,14.5c0,10.1,0.1,20.2,0,30.3
			c-0.1,7.9,6.5,14.5,14.4,14.3c1.7,0,3.4,0,5.1,0s2.8,1.1,2.9,2.9c0,0.4,0,0.9,0,1.3c0,5.1,0,10.2,0,15.3c0,2,1.5,3.2,3.3,2.9
			c0.9-0.1,1.5-0.7,2.1-1.3c6.5-6.5,13.1-13,19.6-19.5c1.1-1.1,2.2-1.6,3.7-1.5c3.6,0.1,7.2,0,10.7,0c1.3,0,1.4-0.1,1.4-1.4
			c0-10.2,0-20.4,0-30.6c0-0.8-0.3-1.3-0.9-1.8c-12.9-8.4-15.7-25.9-6.1-38c0.3-0.3,0.8-0.6,0.6-1c-0.2-0.4-0.8-0.2-1.2-0.2
			C408.7,18.4,401.5,18.4,394.4,18.4z M451.2,21.4c-0.3,0.4-0.1,0.8-0.1,1.1c0,3.7,0,7.4,0,11.2c0,1.4-0.5,2.5-1.8,3.2
			c-3.6,2-7.1,4.1-10.7,6.2c-1.3,0.8-2.5,0.7-3.8,0c-3.3-2-6.6-3.9-9.9-5.7c-1.9-1-2.6-2.4-2.5-4.4c0.1-3.5,0-6.9,0-10.4
			c0-0.3,0.2-0.7-0.2-0.9c-0.3-0.1-0.5,0.3-0.7,0.5c-0.1,0.1-0.2,0.2-0.3,0.3c-8.4,9.6-5.8,24.9,5.4,31.2c1.8,1,2.5,2.3,2.5,4.3
			c-0.1,12.2,0,24.3,0,36.5c0,4.5,3.7,8.1,8.2,8.2c4.6,0.1,8.4-3.7,8.4-8.4c0-12.3,0-24.6,0-36.8c0-2,0.6-3.2,2.3-4.2
			c10.8-6.7,12.7-21.8,4.2-31.2C451.7,21.8,451.6,21.5,451.2,21.4z"/>
		<path class="st0" d="M391.4,70.3c-6.1,0-12.2,0-18.3,0c-1.9,0-3.1-1.1-3-2.8c0-1.2,0.8-2.3,2-2.5c0.6-0.1,1.2-0.2,1.8-0.2
			c11.8,0,23.5,0,35.3,0c0.5,0,1.1,0,1.6,0.1c1.4,0.3,2.3,1.4,2.2,2.8c-0.1,1.3-1,2.3-2.4,2.5c-0.4,0.1-0.9,0-1.3,0
			C403.3,70.3,397.4,70.3,391.4,70.3z"/>
		<path class="st0" d="M385.4,52.2c4.2,0,8.3,0,12.5,0c1.9,0,3.1,1.2,3,2.9c-0.1,1.2-0.9,2.1-2,2.4c-0.7,0.1-1.4,0.2-2,0.2
			c-7.5,0-15.1,0-22.6,0c-0.5,0-1.1,0-1.6-0.1c-1.6-0.2-2.5-1.3-2.4-2.9c0.1-1.4,1.2-2.4,2.8-2.5c1.7,0,3.5,0,5.2,0
			C380.5,52.2,382.9,52.2,385.4,52.2z"/>
		<path class="st0" d="M381.1,44.9c-2.6,0-5.3,0-7.9,0c-1.9,0-3-1-3.1-2.6c-0.1-1.7,1.1-2.8,3-2.9c5.4,0,10.8,0,16.1,0
			c1.9,0,3.1,1.2,3,2.8s-1.2,2.6-3.1,2.6C386.4,44.9,383.7,44.9,381.1,44.9z"/>
	</g>
</g>
</svg>
