<?xml version="1.0" encoding="utf-8"?>
<!-- Generator: Adobe Illustrator 27.9.0, SVG Export Plug-In . SVG Version: 6.00 Build 0)  -->
<svg version="1.1" id="Camada_1" xmlns="http://www.w3.org/2000/svg" xmlns:xlink="http://www.w3.org/1999/xlink" x="0px" y="0px"
	 viewBox="0 0 198.6 395.9" style="enable-background:new 0 0 198.6 395.9;" xml:space="preserve">
<style type="text/css">
	.st0{display:none;}
	.st1{display:inline;fill:url(#SVGID_1_);}
	.st2{display:inline;fill:#BFEFE0;}
	.st3{fill:url(#SVGID_00000179638815722729372190000013333955830831972282_);}
	.st4{fill:url(#SVGID_00000016753520641007052750000013967517483425210028_);}
	.st5{fill:url(#SVGID_00000142897962241450420030000010189799319825381290_);}
	.st6{fill:url(#SVGID_00000117655249510781730870000001705006359368950157_);}
	.st7{fill:url(#SVGID_00000034067933547049348890000005991862065454978946_);}
	.st8{fill:url(#SVGID_00000018938153501616935200000012804302465749732493_);}
	.st9{fill:#112137;}
	.st10{fill:url(#SVGID_00000024685514629602592660000012397795331958086331_);}
	.st11{fill:url(#SVGID_00000007410496183411688350000017290698268910682777_);}
	.st12{fill:url(#SVGID_00000078731113721765305740000012608286895674168968_);}
	.st13{fill:url(#SVGID_00000147193723413499846090000000930613114435485117_);}
	.st14{fill:url(#SVGID_00000070809195718097641080000005409985836919080333_);}
	.st15{fill:url(#SVGID_00000164511657347596402430000000163153908175359125_);}
	.st16{fill:url(#SVGID_00000142884237423695722760000009529211088879595679_);}
	.st17{fill:url(#SVGID_00000016767932463231261840000011889838009118651033_);}
	.st18{opacity:0.5;fill:url(#SVGID_00000181054143363697326530000015450684363914456244_);enable-background:new    ;}
	.st19{fill:#FFFFFF;}
	.st20{enable-background:new    ;}
	.st21{fill:#00C866;}
	.st22{font-family:'Poppins-Light';}
	.st23{font-size:28px;}
	.st24{font-family:'Poppins-Bold';}
</style>
<g id="Camada_3" class="st0">
	
		<radialGradient id="SVGID_1_" cx="-858.2962" cy="-4839.9727" r="78.0381" gradientTransform="matrix(2.2154 0 0 -0.1022 2000.7694 -97.6246)" gradientUnits="userSpaceOnUse">
		<stop  offset="0" style="stop-color:#2D7779"/>
		<stop  offset="0.1196" style="stop-color:#3D8183;stop-opacity:0.8804"/>
		<stop  offset="0.3521" style="stop-color:#669A9C;stop-opacity:0.6479"/>
		<stop  offset="0.6743" style="stop-color:#A8C3C5;stop-opacity:0.3257"/>
		<stop  offset="1" style="stop-color:#F1F1F2;stop-opacity:0"/>
	</radialGradient>
	<ellipse class="st1" cx="99.3" cy="397" rx="172.8" ry="8"/>
</g>
<g id="BACKGROUND" class="st0">
	<rect x="-150.7" y="-47.5" class="st2" width="500" height="500"/>
</g>
<g id="OBJECTS">
	<g>
		<g>
			
				<linearGradient id="SVGID_00000044168240397744403340000018426274781289495226_" gradientUnits="userSpaceOnUse" x1="196.55" y1="-62.2614" x2="196.55" y2="-110.4614" gradientTransform="matrix(1 0 0 -1 0 28)">
				<stop  offset="0" style="stop-color:#231F20"/>
				<stop  offset="1.795178e-02" style="stop-color:#272324"/>
				<stop  offset="0.3145" style="stop-color:#676769"/>
				<stop  offset="0.4531" style="stop-color:#808184"/>
				<stop  offset="0.5592" style="stop-color:#747477"/>
				<stop  offset="0.7571" style="stop-color:#535153"/>
				<stop  offset="1" style="stop-color:#231F20"/>
			</linearGradient>
			<path style="fill:url(#SVGID_00000044168240397744403340000018426274781289495226_);" d="M194.5,138.2h2.1c1.1,0,2-0.9,2-2V92
				c0-1.1-0.9-2-2-2h-2.1V138.2z"/>
			
				<linearGradient id="SVGID_00000129167918387676451390000006996386881313176214_" gradientUnits="userSpaceOnUse" x1="2.05" y1="-24.4327" x2="2.05" y2="-40.6327" gradientTransform="matrix(1 0 0 -1 0 28)">
				<stop  offset="0" style="stop-color:#231F20"/>
				<stop  offset="1.795178e-02" style="stop-color:#272324"/>
				<stop  offset="0.3145" style="stop-color:#676769"/>
				<stop  offset="0.4531" style="stop-color:#808184"/>
				<stop  offset="0.5592" style="stop-color:#747477"/>
				<stop  offset="0.7571" style="stop-color:#535153"/>
				<stop  offset="1" style="stop-color:#231F20"/>
			</linearGradient>
			<path style="fill:url(#SVGID_00000129167918387676451390000006996386881313176214_);" d="M4.1,68.7H2c-1.1,0-2-0.9-2-2V54.5
				c0-1.1,0.9-2,2-2h2.1V68.7z"/>
			
				<linearGradient id="SVGID_00000150090356527277451300000018317948658570034110_" gradientUnits="userSpaceOnUse" x1="2.05" y1="-51.8965" x2="2.05" y2="-82.0607" gradientTransform="matrix(1 0 0 -1 0 28)">
				<stop  offset="0" style="stop-color:#231F20"/>
				<stop  offset="1.795178e-02" style="stop-color:#272324"/>
				<stop  offset="0.3145" style="stop-color:#676769"/>
				<stop  offset="0.4531" style="stop-color:#808184"/>
				<stop  offset="0.5592" style="stop-color:#747477"/>
				<stop  offset="0.7571" style="stop-color:#535153"/>
				<stop  offset="1" style="stop-color:#231F20"/>
			</linearGradient>
			<path style="fill:url(#SVGID_00000150090356527277451300000018317948658570034110_);" d="M4.1,110.1H2c-1.1,0-2-0.9-2-2V81.7
				c0-1.1,0.9-2,2-2h2.1V110.1z"/>
			
				<linearGradient id="SVGID_00000029040412670400643120000005819602933554103959_" gradientUnits="userSpaceOnUse" x1="2.05" y1="-89.1356" x2="2.05" y2="-119.9511" gradientTransform="matrix(1 0 0 -1 0 28)">
				<stop  offset="0" style="stop-color:#231F20"/>
				<stop  offset="1.795178e-02" style="stop-color:#272324"/>
				<stop  offset="0.3145" style="stop-color:#676769"/>
				<stop  offset="0.4531" style="stop-color:#808184"/>
				<stop  offset="0.5592" style="stop-color:#747477"/>
				<stop  offset="0.7571" style="stop-color:#535153"/>
				<stop  offset="1" style="stop-color:#231F20"/>
			</linearGradient>
			<path style="fill:url(#SVGID_00000029040412670400643120000005819602933554103959_);" d="M4.1,147.5H2c-1.1,0-2-0.9-2-2V119
				c0-1.1,0.9-2,2-2h2.1V147.5z"/>
			
				<linearGradient id="SVGID_00000081638995619384878620000014828954681430453893_" gradientUnits="userSpaceOnUse" x1="2.3" y1="-169.95" x2="196.5" y2="-169.95" gradientTransform="matrix(1 0 0 -1 0 28)">
				<stop  offset="0" style="stop-color:#231F20"/>
				<stop  offset="1.795178e-02" style="stop-color:#272324"/>
				<stop  offset="0.3145" style="stop-color:#676769"/>
				<stop  offset="0.4531" style="stop-color:#808184"/>
				<stop  offset="0.5592" style="stop-color:#747477"/>
				<stop  offset="0.7571" style="stop-color:#535153"/>
				<stop  offset="1" style="stop-color:#231F20"/>
			</linearGradient>
			<path style="fill:url(#SVGID_00000081638995619384878620000014828954681430453893_);" d="M168.3,395.9H30.5
				c-15.6,0-28.2-12.6-28.2-28.2V28.2C2.3,12.6,15,0,30.5,0h137.8c15.6,0,28.2,12.6,28.2,28.2v339.4
				C196.5,383.2,183.9,395.9,168.3,395.9z"/>
			<path d="M6,367.9V28C6,14.6,16.9,3.7,30.3,3.7h138.2c13.4,0,24.3,10.9,24.3,24.3v339.9c0,13.4-10.9,24.3-24.3,24.3H30.3
				C16.9,392.2,6,381.3,6,367.9z"/>
			
				<linearGradient id="SVGID_00000181789680601050842630000003734999228069321090_" gradientUnits="userSpaceOnUse" x1="99.4" y1="-361.38" x2="99.4" y2="22.3492" gradientTransform="matrix(1 0 0 -1 0 28)">
				<stop  offset="0" style="stop-color:#4D4D4D"/>
				<stop  offset="1" style="stop-color:#000000"/>
			</linearGradient>
			<path style="fill:url(#SVGID_00000181789680601050842630000003734999228069321090_);" d="M9.8,368.1V27.8
				c0-11.2,9.1-20.3,20.3-20.3h138.6c11.2,0,20.3,9.1,20.3,20.3v340.3c0,11.2-9.1,20.3-20.3,20.3H30.1
				C18.9,388.4,9.8,379.3,9.8,368.1z"/>
			<path class="st9" d="M11.3,368.2V27.7c0-10.4,8.4-18.8,18.8-18.8h138.8c10.4,0,18.8,8.4,18.8,18.8v340.5
				c0,10.4-8.4,18.8-18.8,18.8H30C19.7,386.9,11.3,378.5,11.3,368.2z"/>
			
				<linearGradient id="SVGID_00000156570261149961926000000013259810395498479752_" gradientUnits="userSpaceOnUse" x1="189.2916" y1="-169.9" x2="193.5568" y2="-169.9" gradientTransform="matrix(1 0 0 -1 0 28)">
				<stop  offset="0" style="stop-color:#000000;stop-opacity:0"/>
				<stop  offset="0.2019" style="stop-color:#3D3D3D;stop-opacity:0.2019"/>
				<stop  offset="0.4932" style="stop-color:#8F8F8F;stop-opacity:0.4932"/>
				<stop  offset="0.7326" style="stop-color:#CCCCCC;stop-opacity:0.7326"/>
				<stop  offset="0.9077" style="stop-color:#F1F1F1;stop-opacity:0.9077"/>
				<stop  offset="1" style="stop-color:#FFFFFF"/>
			</linearGradient>
			<path style="fill:url(#SVGID_00000156570261149961926000000013259810395498479752_);" d="M190,371.1V24.8c0-7.3-3.4-13.8-8.7-18
				c6.8,4,11.4,11.4,11.4,19.8v342.6c0,8.5-4.6,15.9-11.4,19.8C186.6,384.8,190,378.4,190,371.1z"/>
			
				<linearGradient id="SVGID_00000072245126326512285760000006779772077429565081_" gradientUnits="userSpaceOnUse" x1="4577.9194" y1="-169.95" x2="4582.1846" y2="-169.95" gradientTransform="matrix(-1 0 0 -1 4587.4531 28)">
				<stop  offset="0" style="stop-color:#000000;stop-opacity:0"/>
				<stop  offset="0.2019" style="stop-color:#3D3D3D;stop-opacity:0.2019"/>
				<stop  offset="0.4932" style="stop-color:#8F8F8F;stop-opacity:0.4932"/>
				<stop  offset="0.7326" style="stop-color:#CCCCCC;stop-opacity:0.7326"/>
				<stop  offset="0.9077" style="stop-color:#F1F1F1;stop-opacity:0.9077"/>
				<stop  offset="1" style="stop-color:#FFFFFF"/>
			</linearGradient>
			<path style="fill:url(#SVGID_00000072245126326512285760000006779772077429565081_);" d="M8.8,371.1V24.8c0-7.3,3.4-13.8,8.7-18
				C10.6,10.8,6,18.2,6,26.7v342.6c0,8.5,4.6,15.9,11.4,19.8C12.2,384.8,8.8,378.4,8.8,371.1z"/>
			<path d="M47.9,8c1.2,0.8,3.2,2.6,3.6,5.7c0.5,4.5,2.2,9.9,9.6,9.9H93c7.3,0,12.9,0,12.9,0h31.9c7.3,0,9.1-5.5,9.6-9.9
				c0.3-3.1,2.4-4.9,3.6-5.7C151,8,47.9,8,47.9,8z"/>
			
				<linearGradient id="SVGID_00000070085822168397873670000018273133539682770336_" gradientUnits="userSpaceOnUse" x1="99.4055" y1="12.1082" x2="99.4055" y2="15.1808" gradientTransform="matrix(1 0 0 -1 0 28)">
				<stop  offset="0" style="stop-color:#4D4D4D"/>
				<stop  offset="6.929898e-02" style="stop-color:#434343"/>
				<stop  offset="0.3091" style="stop-color:#262626"/>
				<stop  offset="0.5466" style="stop-color:#111111"/>
				<stop  offset="0.779" style="stop-color:#040404"/>
				<stop  offset="1" style="stop-color:#000000"/>
			</linearGradient>
			<path style="fill:url(#SVGID_00000070085822168397873670000018273133539682770336_);" d="M110.5,15.8H88.3
				c-0.6,0-1.1-0.5-1.1-1.1V14c0-0.6,0.5-1.1,1.1-1.1h22.2c0.6,0,1.1,0.5,1.1,1.1v0.6C111.7,15.3,111.1,15.8,110.5,15.8z"/>
			<g>
				<circle cx="120.6" cy="14.7" r="2.6"/>
				
					<linearGradient id="SVGID_00000112608808762445120700000012208285149812122529_" gradientUnits="userSpaceOnUse" x1="123.557" y1="10.343" x2="118.0105" y2="15.8895" gradientTransform="matrix(1 0 0 -1 0 28)">
					<stop  offset="0" style="stop-color:#4D4D4D"/>
					<stop  offset="1" style="stop-color:#000000"/>
				</linearGradient>
				<circle style="fill:url(#SVGID_00000112608808762445120700000012208285149812122529_);" cx="120.6" cy="14.7" r="3.7"/>
				
					<linearGradient id="SVGID_00000121255084210198139330000011823315816045106092_" gradientUnits="userSpaceOnUse" x1="123.0248" y1="10.8752" x2="118.4876" y2="15.4124" gradientTransform="matrix(1 0 0 -1 0 28)">
					<stop  offset="0" style="stop-color:#000000"/>
					<stop  offset="1" style="stop-color:#4D4D4D"/>
				</linearGradient>
				<circle style="fill:url(#SVGID_00000121255084210198139330000011823315816045106092_);" cx="120.6" cy="14.7" r="3"/>
				
					<linearGradient id="SVGID_00000070110867123452877290000010121463045506872200_" gradientUnits="userSpaceOnUse" x1="118.7256" y1="15.1744" x2="122.8753" y2="11.0247" gradientTransform="matrix(1 0 0 -1 0 28)">
					<stop  offset="0" style="stop-color:#0058EE"/>
					<stop  offset="0.6936" style="stop-color:#000000;stop-opacity:0"/>
				</linearGradient>
				<circle style="fill:url(#SVGID_00000070110867123452877290000010121463045506872200_);" cx="120.6" cy="14.7" r="2.6"/>
				
					<radialGradient id="SVGID_00000070814601609224167720000005905965022703857571_" cx="120.8373" cy="10.6658" r="2.5942" gradientTransform="matrix(1 0 0 -1 0 28)" gradientUnits="userSpaceOnUse">
					<stop  offset="0" style="stop-color:#0058EE"/>
					<stop  offset="0.8599" style="stop-color:#000000;stop-opacity:0"/>
				</radialGradient>
				<circle style="fill:url(#SVGID_00000070814601609224167720000005905965022703857571_);" cx="120.6" cy="14.7" r="2.6"/>
				
					<radialGradient id="SVGID_00000140731268820798865930000012647606288695229866_" cx="123.08" cy="14.0719" r="1.7031" gradientTransform="matrix(1 0 0 -1 0 28)" gradientUnits="userSpaceOnUse">
					<stop  offset="0" style="stop-color:#0058EE"/>
					<stop  offset="0.7042" style="stop-color:#000000;stop-opacity:0"/>
				</radialGradient>
				<circle style="fill:url(#SVGID_00000140731268820798865930000012647606288695229866_);" cx="120.6" cy="14.7" r="2.6"/>
				
					<radialGradient id="SVGID_00000093138981608473751620000001738990083043760317_" cx="119.0263" cy="12.3809" r="2.5833" gradientTransform="matrix(1 0 0 -1 0 28)" gradientUnits="userSpaceOnUse">
					<stop  offset="0" style="stop-color:#FFFFFF"/>
					<stop  offset="0.1479" style="stop-color:#BDBDBD;stop-opacity:0.8332"/>
					<stop  offset="0.2947" style="stop-color:#838383;stop-opacity:0.6677"/>
					<stop  offset="0.4349" style="stop-color:#545454;stop-opacity:0.5095"/>
					<stop  offset="0.5675" style="stop-color:#303030;stop-opacity:0.36"/>
					<stop  offset="0.6906" style="stop-color:#151515;stop-opacity:0.2212"/>
					<stop  offset="0.8007" style="stop-color:#060606;stop-opacity:9.708565e-02"/>
					<stop  offset="0.8868" style="stop-color:#000000;stop-opacity:0"/>
				</radialGradient>
				
					<circle style="opacity:0.5;fill:url(#SVGID_00000093138981608473751620000001738990083043760317_);enable-background:new    ;" cx="120.6" cy="14.7" r="2.6"/>
			</g>
		</g>
	</g>
	<g>
		<g>
			<rect x="153.4" y="18.7" class="st19" width="1.2" height="1.9"/>
			<rect x="155.1" y="17.9" class="st19" width="1.2" height="2.7"/>
			<rect x="156.7" y="17.2" class="st19" width="1.2" height="3.5"/>
			<rect x="158.4" y="16.3" class="st19" width="1.2" height="4.3"/>
		</g>
		<g>
			<path class="st19" d="M162.2,18.5c0.7-0.7,1.6-1.1,2.6-1.1s1.9,0.4,2.6,1.1l0.8-0.8c-0.9-0.9-2.1-1.4-3.4-1.4
				c-1.3,0-2.5,0.5-3.4,1.4L162.2,18.5z"/>
			<path class="st19" d="M163.2,19.6c0.4-0.4,1-0.6,1.6-0.6s1.2,0.2,1.6,0.6l0.8-0.8c-0.6-0.6-1.4-1-2.4-1c-0.9,0-1.8,0.4-2.4,1
				L163.2,19.6z"/>
			<path class="st19" d="M164.3,20.6c0.1-0.1,0.3-0.2,0.5-0.2s0.4,0.1,0.5,0.2l0.8-0.8c-0.3-0.3-0.8-0.5-1.3-0.5s-1,0.2-1.3,0.5
				L164.3,20.6z"/>
		</g>
		<g>
			<path class="st19" d="M177.2,20.1h-7.1c-0.1,0-0.2-0.1-0.2-0.2v-2.8c0-0.1,0.1-0.2,0.2-0.2h7.1c0.1,0,0.2,0.1,0.2,0.2v2.8
				C177.4,20,177.3,20.1,177.2,20.1z"/>
			<path class="st19" d="M178,19.2h-0.2c-0.1,0-0.2-0.1-0.2-0.2v-1c0-0.1,0.1-0.2,0.2-0.2h0.2c0.1,0,0.2,0.1,0.2,0.2v1
				C178.2,19.1,178.1,19.2,178,19.2z"/>
		</g>
	</g>
	<g class="st20">
		<path class="st19" d="M27.1,20.6h-0.5v-4.1l-1,0.6v-0.5l1.1-0.7h0.4V20.6z"/>
		<path class="st19" d="M29.5,20.7c-0.5,0-0.9-0.1-1.3-0.3v-0.5c0.4,0.2,0.8,0.3,1.3,0.3c0.4,0,0.7-0.1,1-0.3
			c0.3-0.2,0.4-0.5,0.4-0.8s-0.1-0.6-0.4-0.8c-0.2-0.2-0.6-0.3-1-0.3s-0.8,0.1-1.1,0.2l0.3-2.3H31v0.4h-1.9l-0.2,1.3
			c0.2-0.1,0.5-0.1,0.7-0.1c0.5,0,0.9,0.1,1.2,0.4c0.3,0.3,0.5,0.6,0.5,1.1s-0.2,0.8-0.5,1.1C30.5,20.6,30,20.7,29.5,20.7z"/>
		<path class="st19" d="M32.6,18.2c-0.1,0-0.2,0-0.2-0.1s-0.1-0.1-0.1-0.2s0-0.2,0.1-0.2c0.1-0.1,0.1-0.1,0.2-0.1
			c0.1,0,0.2,0,0.2,0.1c0.1,0.1,0.1,0.1,0.1,0.2s0,0.2-0.1,0.2C32.7,18.2,32.7,18.2,32.6,18.2z M32.6,20.7c-0.1,0-0.2,0-0.2-0.1
			c-0.1-0.1-0.1-0.1-0.1-0.2s0-0.2,0.1-0.2c0.1-0.1,0.1-0.1,0.2-0.1c0.1,0,0.2,0,0.2,0.1c0.1,0.1,0.1,0.1,0.1,0.2s0,0.2-0.1,0.2
			S32.7,20.7,32.6,20.7z"/>
		<path class="st19" d="M36.6,20.6h-0.5v-1.3h-2.5v-0.4l2.5-3h0.5v2.9h0.8v0.4h-0.8V20.6z M36.1,16.6l-1.9,2.3h1.9V16.6z"/>
		<path class="st19" d="M39.2,20.7c-0.5,0-1-0.1-1.4-0.3v-0.5c0.4,0.3,0.8,0.4,1.3,0.4c0.4,0,0.7-0.1,0.9-0.3
			c0.3-0.2,0.4-0.5,0.4-0.8s-0.1-0.6-0.3-0.8c-0.2-0.2-0.5-0.3-0.9-0.3c-0.2,0-0.4,0-0.5,0.1v-0.3l1.4-1.4H38V16h2.8v0.4l-1.4,1.4
			c0.4,0,0.8,0.1,1.1,0.4s0.5,0.6,0.5,1c0,0.5-0.2,0.8-0.5,1.1S39.7,20.7,39.2,20.7z"/>
	</g>
</g>
<text transform="matrix(1 0 0 1 28.0889 212.1895)"><tspan x="0" y="0" class="st21 st22 st23">Roda</tspan><tspan x="72.2" y="0" class="st21 st24 st23">Livre</tspan></text>
</svg>
