<?xml version="1.0" encoding="utf-8"?>
<!-- Generator: Adobe Illustrator 27.9.0, SVG Export Plug-In . SVG Version: 6.00 Build 0)  -->
<svg version="1.1" id="Camada_1" xmlns="http://www.w3.org/2000/svg" xmlns:xlink="http://www.w3.org/1999/xlink" x="0px" y="0px"
	 viewBox="0 0 198.6 395.9" style="enable-background:new 0 0 198.6 395.9;" xml:space="preserve">
<style type="text/css">
	.st0{display:none;}
	.st1{display:inline;fill:url(#SVGID_1_);}
	.st2{display:inline;fill:#BFEFE0;}
	.st3{fill:url(#SVGID_00000047023021538647509930000011840743495114711441_);}
	.st4{fill:url(#SVGID_00000054970034834369824580000017236095207243880123_);}
	.st5{fill:url(#SVGID_00000060021284840055057970000004107782647911598234_);}
	.st6{fill:url(#SVGID_00000137132055623886098650000013077430926917494431_);}
	.st7{fill:url(#SVGID_00000047781251299474603270000002038693930486580648_);}
	.st8{fill:url(#SVGID_00000022540172556913376440000008353322107850686131_);}
	.st9{fill:#112137;}
	.st10{fill:url(#SVGID_00000016033218846620547350000000222966909028790186_);}
	.st11{fill:url(#SVGID_00000034061557506478192720000001124482197500006813_);}
	.st12{fill:url(#SVGID_00000169537532350693080340000006622829076269591187_);}
	.st13{fill:url(#SVGID_00000092438204088638693540000002241853115790718090_);}
	.st14{fill:url(#SVGID_00000155138526694443965140000004395282822338162064_);}
	.st15{fill:url(#SVGID_00000044165248982252453180000004878470257618798514_);}
	.st16{fill:url(#SVGID_00000014627576933961809190000001720388498993918631_);}
	.st17{fill:url(#SVGID_00000072968624929258127670000016996369109885338240_);}
	.st18{opacity:0.5;fill:url(#SVGID_00000090290811607309672800000009156629362401586089_);enable-background:new    ;}
	.st19{fill:#FFFFFF;}
	.st20{enable-background:new    ;}
	.st21{fill:#00C866;}
</style>
<g id="Camada_3" class="st0">
	
		<radialGradient id="SVGID_1_" cx="-1178.1383" cy="7233.1489" r="78.0379" gradientTransform="matrix(2.2154 0 0 0.1022 2709.3477 -342.2072)" gradientUnits="userSpaceOnUse">
		<stop  offset="0" style="stop-color:#2D7779"/>
		<stop  offset="0.1196" style="stop-color:#3D8183;stop-opacity:0.8804"/>
		<stop  offset="0.3521" style="stop-color:#669A9C;stop-opacity:0.6479"/>
		<stop  offset="0.6743" style="stop-color:#A8C3C5;stop-opacity:0.3257"/>
		<stop  offset="1" style="stop-color:#F1F1F2;stop-opacity:0"/>
	</radialGradient>
	<ellipse class="st1" cx="99.3" cy="397" rx="172.8" ry="8"/>
</g>
<g id="BACKGROUND" class="st0">
	<rect x="-150.7" y="-47.5" class="st2" width="500" height="500"/>
</g>
<g id="OBJECTS">
	<g>
		<g>
			
				<linearGradient id="SVGID_00000036930959503828097600000015780457258463603111_" gradientUnits="userSpaceOnUse" x1="196.55" y1="830.2614" x2="196.55" y2="878.4614" gradientTransform="matrix(1 0 0 1 0 -740)">
				<stop  offset="0" style="stop-color:#231F20"/>
				<stop  offset="1.795178e-02" style="stop-color:#272324"/>
				<stop  offset="0.3145" style="stop-color:#676769"/>
				<stop  offset="0.4531" style="stop-color:#808184"/>
				<stop  offset="0.5592" style="stop-color:#747477"/>
				<stop  offset="0.7571" style="stop-color:#535153"/>
				<stop  offset="1" style="stop-color:#231F20"/>
			</linearGradient>
			<path style="fill:url(#SVGID_00000036930959503828097600000015780457258463603111_);" d="M194.5,138.2h2.1c1.1,0,2-0.9,2-2V92
				c0-1.1-0.9-2-2-2h-2.1V138.2z"/>
			
				<linearGradient id="SVGID_00000159432770467612958860000016410656147909275532_" gradientUnits="userSpaceOnUse" x1="2.05" y1="792.4327" x2="2.05" y2="808.6327" gradientTransform="matrix(1 0 0 1 0 -740)">
				<stop  offset="0" style="stop-color:#231F20"/>
				<stop  offset="1.795178e-02" style="stop-color:#272324"/>
				<stop  offset="0.3145" style="stop-color:#676769"/>
				<stop  offset="0.4531" style="stop-color:#808184"/>
				<stop  offset="0.5592" style="stop-color:#747477"/>
				<stop  offset="0.7571" style="stop-color:#535153"/>
				<stop  offset="1" style="stop-color:#231F20"/>
			</linearGradient>
			<path style="fill:url(#SVGID_00000159432770467612958860000016410656147909275532_);" d="M4.1,68.7H2c-1.1,0-2-0.9-2-2V54.5
				c0-1.1,0.9-2,2-2h2.1V68.7z"/>
			
				<linearGradient id="SVGID_00000036933319699249448570000010315119366646677142_" gradientUnits="userSpaceOnUse" x1="2.05" y1="819.8965" x2="2.05" y2="850.0607" gradientTransform="matrix(1 0 0 1 0 -740)">
				<stop  offset="0" style="stop-color:#231F20"/>
				<stop  offset="1.795178e-02" style="stop-color:#272324"/>
				<stop  offset="0.3145" style="stop-color:#676769"/>
				<stop  offset="0.4531" style="stop-color:#808184"/>
				<stop  offset="0.5592" style="stop-color:#747477"/>
				<stop  offset="0.7571" style="stop-color:#535153"/>
				<stop  offset="1" style="stop-color:#231F20"/>
			</linearGradient>
			<path style="fill:url(#SVGID_00000036933319699249448570000010315119366646677142_);" d="M4.1,110.1H2c-1.1,0-2-0.9-2-2V81.7
				c0-1.1,0.9-2,2-2h2.1V110.1z"/>
			
				<linearGradient id="SVGID_00000106136617646182418380000015871755800610042801_" gradientUnits="userSpaceOnUse" x1="2.05" y1="857.1356" x2="2.05" y2="887.9511" gradientTransform="matrix(1 0 0 1 0 -740)">
				<stop  offset="0" style="stop-color:#231F20"/>
				<stop  offset="1.795178e-02" style="stop-color:#272324"/>
				<stop  offset="0.3145" style="stop-color:#676769"/>
				<stop  offset="0.4531" style="stop-color:#808184"/>
				<stop  offset="0.5592" style="stop-color:#747477"/>
				<stop  offset="0.7571" style="stop-color:#535153"/>
				<stop  offset="1" style="stop-color:#231F20"/>
			</linearGradient>
			<path style="fill:url(#SVGID_00000106136617646182418380000015871755800610042801_);" d="M4.1,147.5H2c-1.1,0-2-0.9-2-2V119
				c0-1.1,0.9-2,2-2h2.1V147.5z"/>
			
				<linearGradient id="SVGID_00000142149010799791011090000006682999193692633492_" gradientUnits="userSpaceOnUse" x1="2.3" y1="937.95" x2="196.5" y2="937.95" gradientTransform="matrix(1 0 0 1 0 -740)">
				<stop  offset="0" style="stop-color:#231F20"/>
				<stop  offset="1.795178e-02" style="stop-color:#272324"/>
				<stop  offset="0.3145" style="stop-color:#676769"/>
				<stop  offset="0.4531" style="stop-color:#808184"/>
				<stop  offset="0.5592" style="stop-color:#747477"/>
				<stop  offset="0.7571" style="stop-color:#535153"/>
				<stop  offset="1" style="stop-color:#231F20"/>
			</linearGradient>
			<path style="fill:url(#SVGID_00000142149010799791011090000006682999193692633492_);" d="M168.3,395.9H30.5
				c-15.6,0-28.2-12.6-28.2-28.2V28.2C2.3,12.6,15,0,30.5,0h137.8c15.6,0,28.2,12.6,28.2,28.2v339.4
				C196.5,383.2,183.9,395.9,168.3,395.9z"/>
			<path d="M6,367.9V28C6,14.6,16.9,3.7,30.3,3.7h138.2c13.4,0,24.3,10.9,24.3,24.3v339.9c0,13.4-10.9,24.3-24.3,24.3H30.3
				C16.9,392.2,6,381.3,6,367.9z"/>
			
				<linearGradient id="SVGID_00000039828974860321985260000004627026965784895887_" gradientUnits="userSpaceOnUse" x1="99.4" y1="1129.38" x2="99.4" y2="745.6508" gradientTransform="matrix(1 0 0 1 0 -740)">
				<stop  offset="0" style="stop-color:#4D4D4D"/>
				<stop  offset="1" style="stop-color:#000000"/>
			</linearGradient>
			<path style="fill:url(#SVGID_00000039828974860321985260000004627026965784895887_);" d="M9.8,368.1V27.8
				c0-11.2,9.1-20.3,20.3-20.3h138.6c11.2,0,20.3,9.1,20.3,20.3v340.3c0,11.2-9.1,20.3-20.3,20.3H30.1
				C18.9,388.4,9.8,379.3,9.8,368.1z"/>
			<path class="st9" d="M11.3,368.2V27.7c0-10.4,8.4-18.8,18.8-18.8h138.8c10.4,0,18.8,8.4,18.8,18.8v340.5
				c0,10.4-8.4,18.8-18.8,18.8H30C19.7,386.9,11.3,378.5,11.3,368.2z"/>
			
				<linearGradient id="SVGID_00000126290078176095343710000014968904211990383549_" gradientUnits="userSpaceOnUse" x1="189.2916" y1="937.9" x2="193.5568" y2="937.9" gradientTransform="matrix(1 0 0 1 0 -740)">
				<stop  offset="0" style="stop-color:#000000;stop-opacity:0"/>
				<stop  offset="0.2019" style="stop-color:#3D3D3D;stop-opacity:0.2019"/>
				<stop  offset="0.4932" style="stop-color:#8F8F8F;stop-opacity:0.4932"/>
				<stop  offset="0.7326" style="stop-color:#CCCCCC;stop-opacity:0.7326"/>
				<stop  offset="0.9077" style="stop-color:#F1F1F1;stop-opacity:0.9077"/>
				<stop  offset="1" style="stop-color:#FFFFFF"/>
			</linearGradient>
			<path style="fill:url(#SVGID_00000126290078176095343710000014968904211990383549_);" d="M190,371.1V24.8c0-7.3-3.4-13.8-8.7-18
				c6.8,4,11.4,11.4,11.4,19.8v342.6c0,8.5-4.6,15.9-11.4,19.8C186.6,384.8,190,378.4,190,371.1z"/>
			
				<linearGradient id="SVGID_00000036218053095138564220000005825534784621716100_" gradientUnits="userSpaceOnUse" x1="3411.9194" y1="937.95" x2="3416.1846" y2="937.95" gradientTransform="matrix(-1 0 0 1 3421.4531 -740)">
				<stop  offset="0" style="stop-color:#000000;stop-opacity:0"/>
				<stop  offset="0.2019" style="stop-color:#3D3D3D;stop-opacity:0.2019"/>
				<stop  offset="0.4932" style="stop-color:#8F8F8F;stop-opacity:0.4932"/>
				<stop  offset="0.7326" style="stop-color:#CCCCCC;stop-opacity:0.7326"/>
				<stop  offset="0.9077" style="stop-color:#F1F1F1;stop-opacity:0.9077"/>
				<stop  offset="1" style="stop-color:#FFFFFF"/>
			</linearGradient>
			<path style="fill:url(#SVGID_00000036218053095138564220000005825534784621716100_);" d="M8.8,371.1V24.8c0-7.3,3.4-13.8,8.7-18
				C10.6,10.8,6,18.2,6,26.7v342.6c0,8.5,4.6,15.9,11.4,19.8C12.2,384.8,8.8,378.4,8.8,371.1z"/>
			<path d="M47.9,8c1.2,0.8,3.2,2.6,3.6,5.7c0.5,4.5,2.2,9.9,9.6,9.9H93c7.3,0,12.9,0,12.9,0h31.9c7.3,0,9.1-5.5,9.6-9.9
				c0.3-3.1,2.4-4.9,3.6-5.7C151,8,47.9,8,47.9,8z"/>
			
				<linearGradient id="SVGID_00000082327588293874196720000018118676489670168213_" gradientUnits="userSpaceOnUse" x1="99.4055" y1="755.8918" x2="99.4055" y2="752.8192" gradientTransform="matrix(1 0 0 1 0 -740)">
				<stop  offset="0" style="stop-color:#4D4D4D"/>
				<stop  offset="6.929898e-02" style="stop-color:#434343"/>
				<stop  offset="0.3091" style="stop-color:#262626"/>
				<stop  offset="0.5466" style="stop-color:#111111"/>
				<stop  offset="0.779" style="stop-color:#040404"/>
				<stop  offset="1" style="stop-color:#000000"/>
			</linearGradient>
			<path style="fill:url(#SVGID_00000082327588293874196720000018118676489670168213_);" d="M110.5,15.8H88.3
				c-0.6,0-1.1-0.5-1.1-1.1V14c0-0.6,0.5-1.1,1.1-1.1h22.2c0.6,0,1.1,0.5,1.1,1.1v0.6C111.7,15.3,111.1,15.8,110.5,15.8z"/>
			<g>
				<circle cx="120.6" cy="14.7" r="2.6"/>
				
					<linearGradient id="SVGID_00000148626666147087484270000007068726258453989761_" gradientUnits="userSpaceOnUse" x1="123.557" y1="757.657" x2="118.0105" y2="752.1105" gradientTransform="matrix(1 0 0 1 0 -740)">
					<stop  offset="0" style="stop-color:#4D4D4D"/>
					<stop  offset="1" style="stop-color:#000000"/>
				</linearGradient>
				<circle style="fill:url(#SVGID_00000148626666147087484270000007068726258453989761_);" cx="120.6" cy="14.7" r="3.7"/>
				
					<linearGradient id="SVGID_00000113341673691887148440000015364242813200771250_" gradientUnits="userSpaceOnUse" x1="123.0248" y1="757.1248" x2="118.4876" y2="752.5876" gradientTransform="matrix(1 0 0 1 0 -740)">
					<stop  offset="0" style="stop-color:#000000"/>
					<stop  offset="1" style="stop-color:#4D4D4D"/>
				</linearGradient>
				<circle style="fill:url(#SVGID_00000113341673691887148440000015364242813200771250_);" cx="120.6" cy="14.7" r="3"/>
				
					<linearGradient id="SVGID_00000076600846582263120700000009182139085642601657_" gradientUnits="userSpaceOnUse" x1="118.7256" y1="752.8256" x2="122.8753" y2="756.9753" gradientTransform="matrix(1 0 0 1 0 -740)">
					<stop  offset="0" style="stop-color:#0058EE"/>
					<stop  offset="0.6936" style="stop-color:#000000;stop-opacity:0"/>
				</linearGradient>
				<circle style="fill:url(#SVGID_00000076600846582263120700000009182139085642601657_);" cx="120.6" cy="14.7" r="2.6"/>
				
					<radialGradient id="SVGID_00000065766791945700619770000014507747508854503830_" cx="120.8373" cy="757.3342" r="2.5942" gradientTransform="matrix(1 0 0 1 0 -740)" gradientUnits="userSpaceOnUse">
					<stop  offset="0" style="stop-color:#0058EE"/>
					<stop  offset="0.8599" style="stop-color:#000000;stop-opacity:0"/>
				</radialGradient>
				<circle style="fill:url(#SVGID_00000065766791945700619770000014507747508854503830_);" cx="120.6" cy="14.7" r="2.6"/>
				
					<radialGradient id="SVGID_00000136400662194269173020000003338091061315291531_" cx="123.08" cy="753.9281" r="1.7031" gradientTransform="matrix(1 0 0 1 0 -740)" gradientUnits="userSpaceOnUse">
					<stop  offset="0" style="stop-color:#0058EE"/>
					<stop  offset="0.7042" style="stop-color:#000000;stop-opacity:0"/>
				</radialGradient>
				<circle style="fill:url(#SVGID_00000136400662194269173020000003338091061315291531_);" cx="120.6" cy="14.7" r="2.6"/>
				
					<radialGradient id="SVGID_00000054959123035477903000000009415440987268303755_" cx="119.0263" cy="755.6191" r="2.5833" gradientTransform="matrix(1 0 0 1 0 -740)" gradientUnits="userSpaceOnUse">
					<stop  offset="0" style="stop-color:#FFFFFF"/>
					<stop  offset="0.1479" style="stop-color:#BDBDBD;stop-opacity:0.8332"/>
					<stop  offset="0.2947" style="stop-color:#838383;stop-opacity:0.6677"/>
					<stop  offset="0.4349" style="stop-color:#545454;stop-opacity:0.5095"/>
					<stop  offset="0.5675" style="stop-color:#303030;stop-opacity:0.36"/>
					<stop  offset="0.6906" style="stop-color:#151515;stop-opacity:0.2212"/>
					<stop  offset="0.8007" style="stop-color:#060606;stop-opacity:9.708565e-02"/>
					<stop  offset="0.8868" style="stop-color:#000000;stop-opacity:0"/>
				</radialGradient>
				
					<circle style="opacity:0.5;fill:url(#SVGID_00000054959123035477903000000009415440987268303755_);enable-background:new    ;" cx="120.6" cy="14.7" r="2.6"/>
			</g>
		</g>
	</g>
	<g>
		<g>
			<rect x="153.4" y="18.7" class="st19" width="1.2" height="1.9"/>
			<rect x="155.1" y="17.9" class="st19" width="1.2" height="2.7"/>
			<rect x="156.7" y="17.2" class="st19" width="1.2" height="3.5"/>
			<rect x="158.4" y="16.3" class="st19" width="1.2" height="4.3"/>
		</g>
		<g>
			<path class="st19" d="M162.2,18.5c0.7-0.7,1.6-1.1,2.6-1.1s1.9,0.4,2.6,1.1l0.8-0.8c-0.9-0.9-2.1-1.4-3.4-1.4
				c-1.3,0-2.5,0.5-3.4,1.4L162.2,18.5z"/>
			<path class="st19" d="M163.2,19.6c0.4-0.4,1-0.6,1.6-0.6s1.2,0.2,1.6,0.6l0.8-0.8c-0.6-0.6-1.4-1-2.4-1c-0.9,0-1.8,0.4-2.4,1
				L163.2,19.6z"/>
			<path class="st19" d="M164.3,20.6c0.1-0.1,0.3-0.2,0.5-0.2s0.4,0.1,0.5,0.2l0.8-0.8c-0.3-0.3-0.8-0.5-1.3-0.5s-1,0.2-1.3,0.5
				L164.3,20.6z"/>
		</g>
		<g>
			<path class="st19" d="M177.2,20.1h-7.1c-0.1,0-0.2-0.1-0.2-0.2v-2.8c0-0.1,0.1-0.2,0.2-0.2h7.1c0.1,0,0.2,0.1,0.2,0.2v2.8
				C177.4,20,177.3,20.1,177.2,20.1z"/>
			<path class="st19" d="M178,19.2h-0.2c-0.1,0-0.2-0.1-0.2-0.2v-1c0-0.1,0.1-0.2,0.2-0.2h0.2c0.1,0,0.2,0.1,0.2,0.2v1
				C178.2,19.1,178.1,19.2,178,19.2z"/>
		</g>
	</g>
	<g class="st20">
		<path class="st19" d="M27.1,20.6h-0.5v-4.1l-1,0.6v-0.5l1.1-0.7h0.4V20.6z"/>
		<path class="st19" d="M29.5,20.7c-0.5,0-0.9-0.1-1.3-0.3v-0.5c0.4,0.2,0.8,0.3,1.3,0.3c0.4,0,0.7-0.1,1-0.3
			c0.3-0.2,0.4-0.5,0.4-0.8s-0.1-0.6-0.4-0.8c-0.2-0.2-0.6-0.3-1-0.3s-0.8,0.1-1.1,0.2l0.3-2.3H31v0.4h-1.9l-0.2,1.3
			c0.2-0.1,0.5-0.1,0.7-0.1c0.5,0,0.9,0.1,1.2,0.4c0.3,0.3,0.5,0.6,0.5,1.1s-0.2,0.8-0.5,1.1C30.5,20.6,30,20.7,29.5,20.7z"/>
		<path class="st19" d="M32.6,18.2c-0.1,0-0.2,0-0.2-0.1s-0.1-0.1-0.1-0.2s0-0.2,0.1-0.2c0.1-0.1,0.1-0.1,0.2-0.1
			c0.1,0,0.2,0,0.2,0.1c0.1,0.1,0.1,0.1,0.1,0.2s0,0.2-0.1,0.2C32.7,18.2,32.7,18.2,32.6,18.2z M32.6,20.7c-0.1,0-0.2,0-0.2-0.1
			c-0.1-0.1-0.1-0.1-0.1-0.2s0-0.2,0.1-0.2c0.1-0.1,0.1-0.1,0.2-0.1c0.1,0,0.2,0,0.2,0.1c0.1,0.1,0.1,0.1,0.1,0.2s0,0.2-0.1,0.2
			S32.7,20.7,32.6,20.7z"/>
		<path class="st19" d="M36.6,20.6h-0.5v-1.3h-2.5v-0.4l2.5-3h0.5v2.9h0.8v0.4h-0.8V20.6z M36.1,16.6l-1.9,2.3h1.9V16.6z"/>
		<path class="st19" d="M39.2,20.7c-0.5,0-1-0.1-1.4-0.3v-0.5c0.4,0.3,0.8,0.4,1.3,0.4c0.4,0,0.7-0.1,0.9-0.3
			c0.3-0.2,0.4-0.5,0.4-0.8s-0.1-0.6-0.3-0.8c-0.2-0.2-0.5-0.3-0.9-0.3c-0.2,0-0.4,0-0.5,0.1v-0.3l1.4-1.4H38V16h2.8v0.4l-1.4,1.4
			c0.4,0,0.8,0.1,1.1,0.4s0.5,0.6,0.5,1c0,0.5-0.2,0.8-0.5,1.1S39.7,20.7,39.2,20.7z"/>
	</g>
</g>
<g class="st20">
	<path class="st21" d="M40.7,212.2l-4.8-8.2h-3.6v8.2h-2v-19.6h5.9c2.2,0,3.8,0.5,5,1.6c1.1,1,1.7,2.4,1.7,4.1
		c0,1.4-0.4,2.6-1.2,3.6c-0.8,1-2,1.6-3.6,1.9l5,8.3H40.7z M32.3,202.4h3.9c1.5,0,2.7-0.4,3.5-1.1c0.8-0.7,1.2-1.7,1.2-3
		c0-1.3-0.4-2.3-1.1-3s-1.9-1-3.5-1h-3.9V202.4z"/>
	<path class="st21" d="M49.6,211.4c-1.1-0.6-2.1-1.6-2.7-2.7c-0.7-1.2-1-2.6-1-4.2c0-1.6,0.3-3,1-4.2s1.6-2.1,2.7-2.7
		c1.2-0.6,2.5-1,3.9-1s2.7,0.3,3.9,1c1.2,0.6,2.1,1.6,2.7,2.7c0.7,1.2,1,2.6,1,4.2c0,1.6-0.3,2.9-1,4.1s-1.6,2.1-2.8,2.8
		c-1.2,0.6-2.5,1-3.9,1C52,212.4,50.7,212.1,49.6,211.4z M56.3,210c0.9-0.5,1.6-1.1,2.1-2.1c0.5-0.9,0.8-2.1,0.8-3.4
		c0-1.3-0.3-2.5-0.8-3.4c-0.5-0.9-1.2-1.6-2.1-2.1c-0.9-0.5-1.8-0.7-2.8-0.7s-1.9,0.2-2.8,0.7c-0.9,0.5-1.5,1.1-2.1,2.1
		c-0.5,0.9-0.8,2.1-0.8,3.4c0,1.3,0.3,2.5,0.8,3.4c0.5,0.9,1.2,1.6,2,2.1c0.8,0.5,1.8,0.7,2.8,0.7C54.5,210.7,55.4,210.5,56.3,210z"
		/>
	<path class="st21" d="M64.8,200.4c0.6-1.2,1.5-2.1,2.6-2.7c1.1-0.6,2.4-1,3.8-1c1.3,0,2.6,0.3,3.6,1c1.1,0.7,1.9,1.5,2.4,2.5v-8.7
		h2v20.7h-2v-3.4c-0.5,1.1-1.2,1.9-2.3,2.6s-2.3,1-3.8,1c-1.4,0-2.7-0.3-3.8-1c-1.1-0.7-2-1.6-2.6-2.8c-0.6-1.2-0.9-2.6-0.9-4.1
		S64.2,201.6,64.8,200.4z M76.4,201.3c-0.5-0.9-1.2-1.7-2.1-2.2c-0.9-0.5-1.8-0.8-2.9-0.8c-1.1,0-2.1,0.2-2.9,0.7
		c-0.9,0.5-1.5,1.2-2,2.1c-0.5,0.9-0.7,2-0.7,3.3c0,1.3,0.2,2.3,0.7,3.3c0.5,0.9,1.2,1.7,2,2.2c0.9,0.5,1.8,0.7,2.9,0.7
		c1,0,2-0.3,2.9-0.8c0.9-0.5,1.6-1.2,2.1-2.2c0.5-0.9,0.8-2,0.8-3.2C77.2,203.3,76.9,202.2,76.4,201.3z"/>
	<path class="st21" d="M83.7,200.4c0.6-1.2,1.5-2.1,2.6-2.7c1.1-0.6,2.4-1,3.8-1c1.5,0,2.7,0.3,3.8,1c1.1,0.7,1.8,1.5,2.3,2.6v-3.4
		h2v15.3h-2v-3.4c-0.5,1-1.3,1.9-2.3,2.6c-1.1,0.7-2.3,1-3.8,1c-1.4,0-2.6-0.3-3.7-1c-1.1-0.7-2-1.6-2.6-2.8
		c-0.6-1.2-0.9-2.6-0.9-4.1S83.1,201.6,83.7,200.4z M95.3,201.3c-0.5-0.9-1.2-1.7-2.1-2.2c-0.9-0.5-1.8-0.8-2.9-0.8
		c-1.1,0-2.1,0.2-2.9,0.7c-0.9,0.5-1.5,1.2-2,2.1c-0.5,0.9-0.7,2-0.7,3.3c0,1.3,0.2,2.3,0.7,3.3c0.5,0.9,1.2,1.7,2,2.2
		c0.9,0.5,1.8,0.7,2.9,0.7c1,0,2-0.3,2.9-0.8c0.9-0.5,1.6-1.2,2.1-2.2c0.5-0.9,0.8-2,0.8-3.2C96.1,203.3,95.8,202.2,95.3,201.3z"/>
</g>
<g class="st20">
	<path class="st21" d="M106.8,208.5h6.3v3.7H102v-19.7h4.8V208.5z"/>
	<path class="st21" d="M115.7,194.2c-0.5-0.5-0.8-1.1-0.8-1.8c0-0.7,0.3-1.4,0.8-1.9c0.5-0.5,1.2-0.7,2.1-0.7c0.8,0,1.5,0.2,2,0.7
		c0.5,0.5,0.8,1.1,0.8,1.9c0,0.7-0.3,1.3-0.8,1.8c-0.5,0.5-1.2,0.7-2,0.7C116.9,194.9,116.3,194.7,115.7,194.2z M120.2,196.6v15.6
		h-4.8v-15.6H120.2z"/>
	<path class="st21" d="M130.7,207.7l3.4-11.1h5.1l-5.5,15.6h-5.9l-5.5-15.6h5.1L130.7,207.7z"/>
	<path class="st21" d="M148.1,197.1c0.8-0.5,1.8-0.7,2.8-0.7v5.1h-1.3c-1.2,0-2.1,0.3-2.7,0.8c-0.6,0.5-0.9,1.4-0.9,2.7v7.3h-4.8
		v-15.6h4.8v2.6C146.5,198.3,147.2,197.6,148.1,197.1z"/>
	<path class="st21" d="M167.8,205.5H157c0.1,1,0.4,1.7,0.9,2.2c0.5,0.5,1.2,0.8,2,0.8c1.2,0,2-0.5,2.5-1.5h5.1c-0.3,1-0.7,2-1.4,2.8
		c-0.7,0.8-1.5,1.5-2.6,1.9s-2.2,0.7-3.4,0.7c-1.5,0-2.9-0.3-4.1-1s-2.1-1.6-2.8-2.8c-0.7-1.2-1-2.6-1-4.3c0-1.6,0.3-3,1-4.3
		c0.7-1.2,1.6-2.1,2.8-2.8c1.2-0.7,2.6-1,4.1-1c1.5,0,2.9,0.3,4,1c1.2,0.6,2.1,1.5,2.8,2.7c0.7,1.2,1,2.5,1,4.1
		C167.9,204.6,167.9,205,167.8,205.5z M163,202.9c0-0.8-0.3-1.5-0.8-2c-0.6-0.5-1.3-0.7-2.1-0.7c-0.8,0-1.5,0.2-2,0.7
		c-0.6,0.5-0.9,1.1-1,2H163z"/>
</g>
</svg>
